<?xml version="1.0" encoding="utf-8"?>
<!-- Generator: Adobe Illustrator 18.0.0, SVG Export Plug-In . SVG Version: 6.00 Build 0)  -->
<!DOCTYPE svg PUBLIC "-//W3C//DTD SVG 1.1//EN" "http://www.w3.org/Graphics/SVG/1.1/DTD/svg11.dtd">
<svg version="1.1" id="Calque_1" xmlns="http://www.w3.org/2000/svg" xmlns:xlink="http://www.w3.org/1999/xlink" x="0px" y="0px"
	 viewBox="318 -65 567 625" enable-background="new 318 -65 567 625" xml:space="preserve">
<g id="Calque_2">
	<path fill="#8A8A8A" d="M750.9,147.4c-12.8-12.3-27.2-22-43.2-29.1l0.3-0.8c16.1,7.2,30.8,17,43.6,29.3L750.9,147.4z"/>
	<path fill="#8A8A8A" d="M716.7,390.1l-0.3-0.8c19.8-10.4,37.3-25.2,50.8-43.2l0.7,0.5C754.2,364.7,736.6,379.6,716.7,390.1z"/>
	<path fill="#8A8A8A" d="M576.5,390.2c-50.3-26.2-81.4-77.7-81.4-134.2h1c0,56.2,30.9,107.3,80.9,133.5L576.5,390.2z"/>
	<g>
		<circle fill="#8A8A8A" cx="646.4" cy="402.2" r="2"/>
		<path fill="#8A8A8A" d="M648.5,382.2c0-1.2-0.8-2-2-2s-2,0.8-2,2c0,1.2,2,12.3,2,12.3S648.5,383.2,648.5,382.2z"/>
	</g>
	<g>
		<circle fill="#8A8A8A" cx="767.2" cy="253.7" r="2"/>
		<g>
			<path fill="#8A8A8A" d="M766.2,242.8L766.2,242.8c2-0.2,3.4-0.7,4.5-1.3c1-0.8,1.5-2,1.5-3.4l0,0c0-0.7-0.2-1.2-0.3-1.7
				c-0.2-0.5-0.5-1-1-1.3c-0.3-0.3-0.8-0.7-1.5-1c-0.7-0.3-1.2-0.3-2-0.3c-1.2,0-2.2,0.2-3,0.7c-0.8,0.5-1.7,1.2-2.5,2.2l-1-0.8
				c0.3-0.5,0.8-1,1.2-1.3c0.5-0.3,1-0.7,1.5-1.2c0.5-0.3,1.2-0.5,1.7-0.7c0.7-0.2,1.3-0.2,2-0.2c1,0,1.8,0.2,2.5,0.5
				c0.7,0.2,1.3,0.7,2,1.2c0.5,0.5,1,1.2,1.2,1.7c0.2,0.7,0.5,1.3,0.5,2.2l0,0c0,0.8-0.2,1.5-0.5,2.4c-0.3,0.7-0.7,1.2-1.3,1.7
				c-0.5,0.5-1.2,0.8-1.8,1.2c-0.7,0.2-1.5,0.5-2.4,0.7l-0.2,3.5h-0.5L766.2,242.8z"/>
		</g>
	</g>
	<path fill="#8A8A8A" d="M572.4,255.9h-1.2c-11.9,16.1-18.3,35.7-18.3,56c0,23.9,8.9,46.8,25.2,64.2l0.7-0.7
		c-16-17.3-24.9-40-24.9-63.7C553.9,291.5,560.5,272,572.4,255.9z"/>
	<path fill="#A0A0A0" d="M671.2,221.1c-7.4-2-15.1-2.9-22.9-2.9v-1c7.9,0,15.6,1.2,23,3L671.2,221.1z"/>
	<path fill="#8A8A8A" d="M715.4,378.3l-0.7-0.7c10.4-10.6,18.2-23.7,22.5-37.8l0.8,0.2C733.7,354.4,725.8,367.5,715.4,378.3z"/>
</g>
<g id="Calque_1_1_">
	<path fill="none" stroke="#000000" stroke-width="0.75" stroke-miterlimit="10" d="M866.4,244.8c0-54.7-44.4-99.1-99.1-99.1
		s-99.1,44.4-99.1,99.1s44.4,99.1,99.1,99.1v122.3C767.3,370.1,866.4,344.2,866.4,244.8z"/>
	<path fill="none" stroke="#000000" stroke-width="0.75" stroke-miterlimit="10" d="M646.4,237.7c2.5-103.9,70-86.1,70-156.2
		c0-38.7-31.3-70-70-70"/>
	<path fill="none" stroke="#000000" stroke-width="0.75" stroke-miterlimit="10" d="M716.4,392.3c0-38.7-31.3-70-70-70
		c-38.7,0-70,31.3-70,70s31.3,70,70,70v86.3C649.1,444.6,716.4,462.4,716.4,392.3z"/>
</g>
<polyline fill="none" stroke="#000000" stroke-miterlimit="10" points="347.1,-15.1 347.1,-42 646.1,-42 646.1,257 347.1,257 
	347.1,73.8 "/>
</svg>
