<svg id="Calque_1" data-name="Calque 1" xmlns="http://www.w3.org/2000/svg" viewBox="0 0 131.45 160.34"><defs><style>.cls-1,.cls-2,.cls-4{fill:none;}.cls-1,.cls-4{stroke:#8a8a8a;}.cls-1{stroke-miterlimit:10;}.cls-1,.cls-2,.cls-3,.cls-4{stroke-width:0.5px;}.cls-2,.cls-3{stroke:#1d1d1b;}.cls-2,.cls-3,.cls-4{stroke-linejoin:bevel;}.cls-3{fill:#fff;}</style></defs><title>AMPOULE</title><line class="cls-1" x1="76.18" y1="138.09" x2="76.18" y2="124.44"/><circle class="cls-1" cx="76.18" cy="120.16" r="4.15"/><line class="cls-2" x1="0.25" y1="86.22" x2="27.04" y2="56.04"/><polyline class="cls-3" points="116.92 56.04 122.91 56.04 122.91 129.84 30.34 129.84 30.34 64.13"/><polyline class="cls-3" points="76.62 27.74 98.78 27.74 98.78 60.8 39.72 60.8"/><polygon class="cls-3" points="5.09 70.09 29.51 42.57 29.51 109.97 5.09 137.49 5.09 70.09"/><polyline class="cls-3" points="39.72 46.69 39.72 60.8 23.21 79.4 23.21 46.34 35.76 32.2"/><polygon class="cls-3" points="82.28 46.34 98.78 27.74 98.78 65.8 82.28 84.4 82.28 46.34"/><polyline class="cls-2" points="98.78 42.57 116.92 42.57 116.92 109.97 29.51 109.97"/><polygon class="cls-3" points="92.49 70.09 116.92 42.57 116.92 109.97 92.49 137.49 92.49 70.09"/><rect class="cls-3" x="5.09" y="70.09" width="87.4" height="67.4"/><polygon class="cls-3" points="96.12 86.22 122.91 56.04 122.91 129.9 96.12 160.09 96.12 86.22"/><rect class="cls-3" x="0.25" y="86.22" width="95.87" height="73.87"/><line class="cls-1" x1="128.01" y1="73.78" x2="108.16" y2="93.95"/><line class="cls-1" x1="129.64" y1="79.5" x2="109.8" y2="99.67"/><line class="cls-1" x1="131.27" y1="85.21" x2="111.43" y2="105.38"/><path class="cls-3" d="M83.08,802.19c0-1.56.68-2.74,2.24-5.86a19.85,19.85,0,0,0,1.86-8.83,21.78,21.78,0,1,0-43.55,0" transform="translate(-7.84 -755.5)"/><line class="cls-1" x1="108.8" y1="30.02" x2="104.1" y2="34.72"/><line class="cls-1" x1="108.8" y1="34.72" x2="104.1" y2="30.02"/><line class="cls-2" x1="57.57" y1="5.76" x2="57.57"/><line class="cls-2" x1="77.68" y1="14.09" x2="81.75" y2="10.02"/><line class="cls-2" x1="37.46" y1="14.09" x2="33.38" y2="10.02"/><path class="cls-4" d="M64.2,796.53a3.43,3.43,0,1,0-6.85,0c0,1.89,3.42,6.39,3.42,6.39S64.2,798.42,64.2,796.53Z" transform="translate(-7.84 -755.5)"/><path class="cls-4" d="M68.83,796.53a3.43,3.43,0,1,0-6.85,0c0,1.89,3.43,6.39,3.43,6.39S68.83,798.42,68.83,796.53Z" transform="translate(-7.84 -755.5)"/><path class="cls-4" d="M73.47,796.53a3.43,3.43,0,0,0-6.86,0c0,1.89,3.43,6.39,3.43,6.39S73.47,798.42,73.47,796.53Z" transform="translate(-7.84 -755.5)"/><rect class="cls-3" x="23.21" y="46.34" width="59.06" height="23.75"/><path class="cls-3" d="M47.74,802.19c0-1.56-.69-2.74-2.24-5.86a19.72,19.72,0,0,1-1.87-8.83" transform="translate(-7.84 -755.5)"/></svg>