<?xml version="1.0" encoding="utf-8"?>
<!-- Generator: Adobe Illustrator 18.0.0, SVG Export Plug-In . SVG Version: 6.00 Build 0)  -->
<!DOCTYPE svg PUBLIC "-//W3C//DTD SVG 1.1//EN" "http://www.w3.org/Graphics/SVG/1.1/DTD/svg11.dtd">
<svg version="1.1" id="Calque_1" xmlns="http://www.w3.org/2000/svg" xmlns:xlink="http://www.w3.org/1999/xlink" x="0px" y="0px"
	 viewBox="55 0 514 630" enable-background="new 55 0 514 630" xml:space="preserve">
<g>
	<path fill="none" stroke="#1D1D1B" stroke-width="0.6" stroke-linejoin="bevel" stroke-miterlimit="10" d="M381.1,380.5
		c45.9-24,76.5-72.1,76.5-126.8c0-79.4-64.8-144.3-144.3-144.3c-79.4,0-144.3,64.8-144.3,144.3c0,54.6,30.6,102,75,126.8"/>
	<path fill="none" stroke="#1D1D1B" stroke-width="0.6" stroke-linejoin="bevel" stroke-miterlimit="10" d="M245.6,616.5
		c21.9,4.4,44.4,6.6,67.8,6.6c23.3,0,45.9-2.2,68.5-6.6"/>
	
		<circle fill="none" stroke="#1D1D1B" stroke-width="0.6" stroke-linejoin="bevel" stroke-miterlimit="10" cx="313.4" cy="253.7" r="249.2"/>
	<path fill="none" stroke="#1D1D1B" stroke-width="0.6" stroke-linejoin="bevel" stroke-miterlimit="10" d="M245.6,616.5
		c22.6,4.4,45.2,6.6,68.5,6.6s45.9-2.2,68.5-6.6"/>
	
		<line fill="none" stroke="#1D1D1B" stroke-width="0.6" stroke-linejoin="bevel" stroke-miterlimit="10" x1="381.1" y1="616.5" x2="381.1" y2="380.5"/>
	
		<line fill="none" stroke="#1D1D1B" stroke-width="0.6" stroke-linejoin="bevel" stroke-miterlimit="10" x1="245.6" y1="380.5" x2="245.6" y2="616.5"/>
</g>
<g>
	<path fill="none" stroke="#8A8A8A" stroke-width="0.6" stroke-linejoin="bevel" stroke-miterlimit="10" d="M245.6,599.1
		c21.9,4.4,44.4,6.6,67.8,6.6c23.3,0,45.9-2.9,68.5-6.6"/>
	<path fill="none" stroke="#8A8A8A" stroke-width="0.6" stroke-linejoin="bevel" stroke-miterlimit="10" d="M245.6,581.6
		c21.9,4.4,44.4,6.6,67.8,6.6c23.3,0,45.9-2.9,68.5-6.6"/>
	<path fill="none" stroke="#8A8A8A" stroke-width="0.6" stroke-linejoin="bevel" stroke-miterlimit="10" d="M245.6,564.1
		c21.9,5.1,44.4,7.3,67.8,7.3c23.3,0,45.9-2.9,68.5-7.3"/>
	<path fill="none" stroke="#8A8A8A" stroke-width="0.6" stroke-linejoin="bevel" stroke-miterlimit="10" d="M245.6,546.6
		c21.9,5.1,44.4,8,67.8,8c23.3,0,46.6-2.9,68.5-8"/>
	<path fill="none" stroke="#8A8A8A" stroke-width="0.6" stroke-linejoin="bevel" stroke-miterlimit="10" d="M245.6,529.1
		c21.9,5.1,44.4,8.7,67.8,8.7c24,0,46.6-2.9,68.5-8.7"/>
	<path fill="none" stroke="#8A8A8A" stroke-width="0.6" stroke-linejoin="bevel" stroke-miterlimit="10" d="M245.6,511.6
		c21.9,5.8,44.4,8.7,67.8,8.7c24,0,46.6-2.9,68.5-8.7"/>
	
		<line fill="none" stroke="#8A8A8A" stroke-width="0.6" stroke-linejoin="bevel" stroke-miterlimit="10" x1="313.4" y1="75.9" x2="313.4" y2="39.5"/>
	
		<line fill="none" stroke="#8A8A8A" stroke-width="0.6" stroke-linejoin="bevel" stroke-miterlimit="10" x1="491.1" y1="253.7" x2="526.8" y2="253.7"/>
	
		<line fill="none" stroke="#8A8A8A" stroke-width="0.6" stroke-linejoin="bevel" stroke-miterlimit="10" x1="134.9" y1="253.7" x2="99.2" y2="253.7"/>
	
		<line fill="none" stroke="#8A8A8A" stroke-width="0.6" stroke-linejoin="bevel" stroke-miterlimit="10" x1="439.4" y1="128.4" x2="464.9" y2="102.9"/>
	
		<line fill="none" stroke="#8A8A8A" stroke-width="0.6" stroke-linejoin="bevel" stroke-miterlimit="10" x1="439.4" y1="379.8" x2="464.9" y2="405.3"/>
	
		<line fill="none" stroke="#8A8A8A" stroke-width="0.6" stroke-linejoin="bevel" stroke-miterlimit="10" x1="187.3" y1="379.8" x2="161.8" y2="405.3"/>
	
		<line fill="none" stroke="#8A8A8A" stroke-width="0.6" stroke-linejoin="bevel" stroke-miterlimit="10" x1="187.3" y1="128.4" x2="161.8" y2="102.9"/>
	<path fill="none" stroke="#8A8A8A" stroke-width="0.6" stroke-linejoin="bevel" stroke-miterlimit="10" d="M276.9,500.7V309.1
		c0-20.4,16.8-37.2,37.2-37.2l0,0c20.4,0,37.2,16.8,37.2,37.2v191.6"/>
	<path fill="none" stroke="#8A8A8A" stroke-width="0.6" stroke-linejoin="bevel" stroke-miterlimit="10" d="M335.2,313.5
		c0-12.4-10.2-22.6-22.6-22.6S290,301.1,290,313.5"/>
</g>
</svg>
