<?xml version="1.0" encoding="utf-8"?>
<!-- Generator: Adobe Illustrator 18.0.0, SVG Export Plug-In . SVG Version: 6.00 Build 0)  -->
<!DOCTYPE svg PUBLIC "-//W3C//DTD SVG 1.1//EN" "http://www.w3.org/Graphics/SVG/1.1/DTD/svg11.dtd">
<svg version="1.1" id="Calque_1" xmlns="http://www.w3.org/2000/svg" xmlns:xlink="http://www.w3.org/1999/xlink" x="0px" y="0px"
	 viewBox="290 0 670 937" enable-background="new 290 0 670 937" xml:space="preserve">
<image display="none" overflow="visible" enable-background="new    " width="1540" height="8193" xlink:href="../../../../../../../Volumes/Agence/CREATION/CLIENTS/LE JOUR PORTE CONSEIL/01_CREA/02_FAB/02_EXPORT/WEBSITE/180404/01 - ONE PAGE.jpg"  transform="matrix(2.24 0 0 2.24 -881.12 -8737.3203)">
</image>
<polyline display="none" fill="none" stroke="#000000" stroke-miterlimit="10" points="1390.2,-5171.2 1390.2,-5148.8 
	2073.4,-5148.8 2073.4,-5832 1677,-5832 "/>
<polyline fill="none" stroke="#000000" stroke-miterlimit="10" points="984.8,4532.4 984.8,4422.7 1473.1,4422.7 1473.1,4911 
	1186.4,4911 "/>
<polyline fill="none" stroke="#000000" stroke-miterlimit="10" points="452,146.8 452,37 940.4,37 940.4,525.4 653.6,525.4 "/>
<circle fill="none" stroke="#1D1D1B" stroke-width="0.5" stroke-miterlimit="10" cx="458.5" cy="747.1" r="63"/>
<path fill="none" stroke="#1D1D1B" stroke-width="0.5" stroke-miterlimit="10" d="M521.6,317.3c0-34.7-28.3-71.6-63-71.6
	c-34.7,0-63,28.3-63,63s63,312.7,63,312.7S521.6,352,521.6,317.3z"/>
<g>
	<path fill="none" stroke="#8A8A8A" stroke-width="0.5" stroke-miterlimit="10" d="M458.5,836.5c-48.9,0-89.4-40.5-89.4-89.4
		s40.5-89.4,89.4-89.4s89.4,40.5,89.4,89.4C547.9,796,508.1,836.5,458.5,836.5z"/>
	<path fill="none" stroke="#8A8A8A" stroke-width="0.5" stroke-miterlimit="10" d="M458.5,823c-41.8,0-75.9-34.1-75.9-75.9
		c0-41.8,34.1-75.9,75.9-75.9s75.9,34.1,75.9,75.9C534.4,788.9,500.3,823,458.5,823z"/>
	<path fill="none" stroke="#8A8A8A" stroke-width="0.5" stroke-miterlimit="10" d="M369.1,310.9c0-48.9,40.5-89.4,89.4-89.4
		c48.9,0,89.4,40.5,89.4,89.4"/>
	<g>
		<line fill="none" stroke="#8A8A8A" stroke-width="0.5" stroke-miterlimit="10" x1="513.8" y1="489.1" x2="513.8" y2="604.3"/>
		<line fill="none" stroke="#8A8A8A" stroke-width="0.5" stroke-miterlimit="10" x1="582" y1="531.6" x2="513.8" y2="571.4"/>
		<line fill="none" stroke="#8A8A8A" stroke-width="0.5" stroke-miterlimit="10" x1="582" y1="548.9" x2="513.8" y2="587.5"/>
		<line fill="none" stroke="#8A8A8A" stroke-width="0.5" stroke-miterlimit="10" x1="582" y1="565" x2="513.8" y2="604.3"/>
		<g>
			<line fill="none" stroke="#8A8A8A" stroke-width="0.5" stroke-miterlimit="10" x1="533.8" y1="473" x2="562.7" y2="473"/>
		</g>
		<line fill="none" stroke="#8A8A8A" stroke-width="0.5" stroke-miterlimit="10" x1="547.9" y1="334.7" x2="513.2" y2="489.7"/>
		<line fill="none" stroke="#8A8A8A" stroke-width="0.5" stroke-miterlimit="10" x1="486.2" y1="612" x2="513.8" y2="489.1"/>
	</g>
	<g>
		<line fill="none" stroke="#8A8A8A" stroke-width="0.5" stroke-miterlimit="10" x1="403.2" y1="489.1" x2="403.2" y2="604.3"/>
		<line fill="none" stroke="#8A8A8A" stroke-width="0.5" stroke-miterlimit="10" x1="334.3" y1="531.6" x2="403.2" y2="571.4"/>
		<line fill="none" stroke="#8A8A8A" stroke-width="0.5" stroke-miterlimit="10" x1="334.3" y1="548.9" x2="403.2" y2="587.5"/>
		<line fill="none" stroke="#8A8A8A" stroke-width="0.5" stroke-miterlimit="10" x1="334.3" y1="565" x2="403.2" y2="604.3"/>
		<g>
			<line fill="none" stroke="#8A8A8A" stroke-width="0.5" stroke-miterlimit="10" x1="383.2" y1="473" x2="354.3" y2="473"/>
		</g>
		<line fill="none" stroke="#8A8A8A" stroke-width="0.5" stroke-miterlimit="10" x1="369.1" y1="334.7" x2="403.8" y2="489.7"/>
		<line fill="none" stroke="#8A8A8A" stroke-width="0.5" stroke-miterlimit="10" x1="430.8" y1="612" x2="403.2" y2="489.1"/>
	</g>
</g>
</svg>
