<?xml version="1.0" encoding="utf-8"?>
<!-- Generator: Adobe Illustrator 22.1.0, SVG Export Plug-In . SVG Version: 6.00 Build 0)  -->
<!DOCTYPE svg PUBLIC "-//W3C//DTD SVG 1.1//EN" "http://www.w3.org/Graphics/SVG/1.1/DTD/svg11.dtd">
<svg version="1.1" id="Calque_1" xmlns="http://www.w3.org/2000/svg" xmlns:xlink="http://www.w3.org/1999/xlink" x="0px" y="0px"
	 viewBox="0 0 25 21.3" style="enable-background:new 0 0 25 21.3;" xml:space="preserve">
<style type="text/css">
	.st0{fill:#ABAFB8;}
</style>
<path class="st0" d="M12.8,9c0.1,4.2-4.9,11.3-8.5,12.2C3.9,21.3,3.1,21,3,20.8c-0.1-0.6-0.1-1.4,0.2-1.9C4,17.8,5,17,5.8,15.9
	c2.5-3.4,2-6.1-1.7-8.1c-2-1.1-2.7-2.2-1.5-4.2c1.3-2.2,3-2.9,5-1.8C10.7,3.5,12.7,5.8,12.8,9z"/>
<path class="st0" d="M24,9c0.1,4.2-4.9,11.3-8.5,12.2c-0.4,0.1-1.2-0.2-1.3-0.5c-0.1-0.6-0.1-1.4,0.2-1.9c0.8-1.1,1.8-1.9,2.6-3
	c2.5-3.4,2-6.1-1.7-8.1c-2-1.1-2.7-2.2-1.5-4.2c1.3-2.2,3-2.9,5-1.8C21.8,3.5,23.8,5.8,24,9z"/>
</svg>
