<?xml version="1.0" encoding="utf-8"?>
<!-- Generator: Adobe Illustrator 22.1.0, SVG Export Plug-In . SVG Version: 6.00 Build 0)  -->
<!DOCTYPE svg PUBLIC "-//W3C//DTD SVG 1.1//EN" "http://www.w3.org/Graphics/SVG/1.1/DTD/svg11.dtd">
<svg version="1.1" id="Calque_1" xmlns="http://www.w3.org/2000/svg" xmlns:xlink="http://www.w3.org/1999/xlink" x="0px" y="0px"
	 viewBox="0 0 24.3 20.7" style="enable-background:new 0 0 24.3 20.7;" xml:space="preserve">
<style type="text/css">
	.st0{fill:#ABAFB8;}
</style>
<path class="st0" d="M17.6,1.5c2-1.1,3.7-0.4,5,1.8c1.2,2,0.5,3.1-1.5,4.2c-3.7,2-4.2,4.7-1.7,8.1c0.8,1.1,1.8,1.9,2.6,3
	c0.3,0.5,0.3,1.3,0.2,1.9c-0.1,0.3-0.9,0.6-1.3,0.5c-3.6-0.9-8.6-8-8.5-12.2C12.6,5.5,14.6,3.2,17.6,1.5z"/>
<path class="st0" d="M6.5,1.5c2-1.1,3.7-0.4,5,1.8c1.2,2,0.5,3.1-1.5,4.2c-3.7,2-4.2,4.7-1.7,8.1c0.8,1.1,1.8,1.9,2.6,3
	c0.3,0.5,0.3,1.3,0.2,1.9c-0.1,0.3-0.9,0.6-1.3,0.5c-3.6-0.9-8.6-8-8.5-12.2C1.4,5.5,3.5,3.2,6.5,1.5z"/>
</svg>
