<?xml version="1.0" encoding="utf-8"?>
<!-- Generator: Adobe Illustrator 18.0.0, SVG Export Plug-In . SVG Version: 6.00 Build 0)  -->
<!DOCTYPE svg PUBLIC "-//W3C//DTD SVG 1.1//EN" "http://www.w3.org/Graphics/SVG/1.1/DTD/svg11.dtd">
<svg version="1.1" id="Calque_1" xmlns="http://www.w3.org/2000/svg" xmlns:xlink="http://www.w3.org/1999/xlink" x="0px" y="0px"
	 viewBox="0 0 620 595.3" enable-background="new 0 0 620 595.3" xml:space="preserve">
<g>
	<path fill="#ffffff" d="M347.3,249.8c7.2-10.5,14.4-19.2,22.4-27.1c20.3-20.2,44.8-31.4,73-34.7c25.4-2.9,50.5-1.4,74.9,6.8
		c33.8,11.5,58.8,33.3,75.5,64.7c12.7,23.9,18.8,49.7,21.2,76.5c1.1,11.7,1,23.3,1,34.9c0.1,70.7,0,141.3,0,212c0,7.5,0,7.5-7.4,7.5
		c-38.8,0-77.7,0-116.5,0c-7.8,0-7.8,0-7.8-7.7c0-64.8-0.1-129.7,0-194.5c0-15.2-0.9-30.3-4.1-45.2c-3.4-16-10.1-30.5-23.6-40.6
		c-19.1-14.3-50.9-15.5-72-2.5c-21.6,13.3-34.3,32.5-36.1,58.3c-0.5,7.2-0.7,14.3-0.7,21.5c0,67.7,0,135.3,0,203
		c0,7.6,0,7.7-7.8,7.7c-39.2,0-78.3,0-117.5,0c-6.8,0-6.9-0.2-6.9-7.1c0-31-0.3-62,0.1-93c1.1-81.8,0.5-163.6,0.5-245.5
		c0-14.3-0.4-28.6-0.6-43c-0.1-6.1,0.5-6.7,6.5-6.7c39.8,0,79.7,0,119.5-0.1c4.7,0,6.4,1.5,6.3,6.4c-0.3,14-0.1,28-0.1,42
		C347.3,245.2,347.3,246.8,347.3,249.8z"/>
	<path fill="#ffffff" d="M144.2,393.2c0,63,0,125.9,0,188.9c0,8.4,0,8.4-8.1,8.4c-39,0-78,0-116.9,0c-7.1,0-7.2-0.1-7.2-7.3
		c0-126.8,0-253.5,0-380.3c0-7.3,0.3-7.6,7.6-7.6c39,0,78,0,116.9,0c7.5,0,7.7,0.2,7.7,8C144.2,266.6,144.2,329.9,144.2,393.2z"/>
	<path fill="#ffffff" d="M4.7,74.7C3.7,38.6,30.7,11.5,65.9,7c16-2,31.5-0.9,46.5,5.7c22.7,9.9,35.6,27.6,39.4,51.6
		c3.9,24.3-3.5,45.1-22.1,61.6c-10.1,8.9-22.2,14-35.4,16.2c-16.7,2.7-33.2,2-49-4.9C19.3,125.9,4.6,103.3,4.7,74.7z"/>
</g>
</svg>
