<?xml version="1.0" encoding="utf-8"?>
<!-- Generator: Adobe Illustrator 22.0.1, SVG Export Plug-In . SVG Version: 6.00 Build 0)  -->
<svg version="1.1" id="Calque_1" xmlns="http://www.w3.org/2000/svg" xmlns:xlink="http://www.w3.org/1999/xlink" x="0px" y="0px"
	 viewBox="0 0 401.2 94.6" style="enable-background:new 0 0 401.2 94.6;" xml:space="preserve">
<style type="text/css">
	.st0{enable-background:new; fill: #a1a9b7;}
	.st1{fill:#7C01AF;}
</style>
<g class="st0">
	<path class="st1" d="M23.7,17.8V47h-2.8V17.8H23.7z"/>
	<path class="st1" d="M43.4,39.3h-13c0,1.6,0.5,2.9,1.6,3.9c1,1.1,2.3,1.6,3.9,1.6c2.1,0,3.8-1.1,5.1-3.4l2.4,1.4
		c-1.7,3.1-4.2,4.7-7.7,4.7c-2.4,0-4.4-0.8-5.9-2.5c-1.5-1.6-2.2-3.7-2.2-6.1c0-2.6,0.7-4.7,2.2-6.4c1.4-1.7,3.4-2.6,5.9-2.6
		c2.6,0,4.6,0.9,6,2.7C43,34.5,43.6,36.7,43.4,39.3z M30.6,36.9h9.9c-0.2-1.2-0.7-2.3-1.7-3.1c-0.9-0.8-2-1.3-3.2-1.3
		c-1.2,0-2.3,0.4-3.3,1.3C31.3,34.6,30.7,35.7,30.6,36.9z"/>
	<path class="st1" d="M58.7,22.7c0.4-0.4,0.9-0.6,1.4-0.6c0.5,0,1,0.2,1.4,0.6c0.4,0.4,0.6,0.9,0.6,1.4c0,0.6-0.2,1-0.6,1.4
		c-0.4,0.4-0.9,0.6-1.4,0.6c-0.5,0-1-0.2-1.4-0.6c-0.4-0.4-0.6-0.9-0.6-1.4C58.1,23.6,58.3,23.1,58.7,22.7z M61.6,30.4v25.9h-2.8
		V30.4H61.6z"/>
	<path class="st1" d="M80.9,44.9c-1.7,1.7-3.8,2.5-6.2,2.5c-2.4,0-4.5-0.8-6.2-2.5c-1.7-1.7-2.5-3.8-2.5-6.2c0-2.4,0.8-4.5,2.5-6.2
		c1.7-1.7,3.8-2.6,6.2-2.6c2.4,0,4.5,0.9,6.2,2.6c1.7,1.7,2.5,3.8,2.5,6.2C83.4,41.1,82.6,43.2,80.9,44.9z M79,34.3
		c-1.1-1.2-2.5-1.8-4.2-1.8c-1.7,0-3.1,0.6-4.2,1.8c-1.1,1.2-1.7,2.6-1.7,4.4c0,1.7,0.6,3.2,1.7,4.4c1.1,1.2,2.5,1.8,4.2,1.8
		c1.7,0,3.1-0.6,4.2-1.8c1.1-1.2,1.7-2.6,1.7-4.4C80.6,37,80.1,35.5,79,34.3z"/>
	<path class="st1" d="M89.9,30.4v9.3c0,0.6,0,1.2,0.1,1.6c0,0.4,0.1,0.9,0.3,1.4c0.2,0.5,0.4,0.9,0.6,1.2c0.3,0.3,0.6,0.5,1.1,0.7
		c0.5,0.2,1,0.3,1.7,0.3c0.7,0,1.2-0.1,1.7-0.3c0.5-0.2,0.8-0.4,1.1-0.7s0.5-0.7,0.6-1.2c0.2-0.5,0.2-0.9,0.3-1.4
		c0-0.4,0.1-1,0.1-1.6v-9.3h2.8v9.6c0,5-2.2,7.5-6.6,7.5c-4.4,0-6.6-2.5-6.6-7.5v-9.6H89.9z"/>
	<path class="st1" d="M108.1,30.4v1.8h0.1c0.6-0.8,1.1-1.3,1.6-1.7c0.5-0.4,1.2-0.5,2-0.5c0.8,0,1.6,0.3,2.5,0.8l-1.3,2.6
		c-0.7-0.5-1.3-0.7-1.7-0.7c-2.2,0-3.3,2-3.3,6.1V47h-2.8V30.4H108.1z"/>
	<path class="st1" d="M130.8,30.4v2.4h0.1c1.4-1.9,3.3-2.8,5.7-2.8c2.4,0,4.3,0.9,5.7,2.6c1.5,1.7,2.2,3.8,2.2,6.2
		c0,2.5-0.7,4.5-2.2,6.2c-1.4,1.7-3.4,2.5-5.8,2.5c-2.4,0-4.3-0.9-5.7-2.8h-0.1v11.7H128V30.4H130.8z M136.1,32.5
		c-1.6,0-2.9,0.6-3.9,1.8c-1,1.2-1.5,2.6-1.5,4.2c0,1.7,0.5,3.2,1.5,4.5c1,1.2,2.3,1.9,4,1.9c1.7,0,3.1-0.6,4.1-1.8
		c1-1.2,1.5-2.7,1.5-4.5c0-1.7-0.5-3.2-1.5-4.3C139.1,33.1,137.8,32.5,136.1,32.5z"/>
	<path class="st1" d="M162,44.9c-1.7,1.7-3.8,2.5-6.2,2.5c-2.4,0-4.5-0.8-6.2-2.5c-1.7-1.7-2.5-3.8-2.5-6.2c0-2.4,0.8-4.5,2.5-6.2
		c1.7-1.7,3.8-2.6,6.2-2.6c2.4,0,4.5,0.9,6.2,2.6c1.7,1.7,2.5,3.8,2.5,6.2C164.5,41.1,163.7,43.2,162,44.9z M160,34.3
		c-1.1-1.2-2.5-1.8-4.2-1.8c-1.7,0-3.1,0.6-4.2,1.8c-1.1,1.2-1.7,2.6-1.7,4.4c0,1.7,0.6,3.2,1.7,4.4c1.1,1.2,2.5,1.8,4.2,1.8
		c1.7,0,3.1-0.6,4.2-1.8c1.1-1.2,1.7-2.6,1.7-4.4C161.7,37,161.1,35.5,160,34.3z"/>
	<path class="st1" d="M171.1,30.4v1.8h0.1c0.6-0.8,1.1-1.3,1.6-1.7c0.5-0.4,1.2-0.5,2-0.5c0.8,0,1.6,0.3,2.5,0.8l-1.3,2.6
		c-0.7-0.5-1.3-0.7-1.7-0.7c-2.2,0-3.3,2-3.3,6.1V47h-2.8V30.4H171.1z"/>
	<path class="st1" d="M183.9,33v14h-2.8V33h-1.7v-2.6h1.7v-6h2.8v6h3V33H183.9z"/>
	<path class="st1" d="M203.9,39.3h-13c0,1.6,0.5,2.9,1.6,3.9c1,1.1,2.3,1.6,3.9,1.6c2.1,0,3.8-1.1,5.1-3.4l2.4,1.4
		c-1.7,3.1-4.2,4.7-7.7,4.7c-2.4,0-4.4-0.8-5.9-2.5c-1.5-1.6-2.2-3.7-2.2-6.1c0-2.6,0.7-4.7,2.2-6.4c1.4-1.7,3.4-2.6,5.9-2.6
		c2.6,0,4.6,0.9,6,2.7S204,36.7,203.9,39.3z M191,36.9h9.9c-0.2-1.2-0.7-2.3-1.7-3.1c-0.9-0.8-2-1.3-3.2-1.3c-1.2,0-2.3,0.4-3.3,1.3
		C191.7,34.6,191.1,35.7,191,36.9z"/>
	<path class="st1" d="M231,31.6v3.7h-0.1c-1.5-1.9-3.2-2.8-5.2-2.8c-1.7,0-3.1,0.6-4.2,1.8c-1.1,1.2-1.7,2.6-1.7,4.3
		s0.5,3.1,1.6,4.3c1.1,1.2,2.4,1.8,4.1,1.8c2.1,0,3.9-1,5.4-2.9h0.1v3.8c-1.7,1.1-3.4,1.7-5.3,1.7c-2.5,0-4.6-0.8-6.3-2.5
		c-1.7-1.7-2.5-3.8-2.5-6.3c0-2.4,0.9-4.5,2.6-6.2s3.8-2.5,6.3-2.5C227.7,29.9,229.4,30.5,231,31.6z"/>
	<path class="st1" d="M248.9,44.9c-1.7,1.7-3.8,2.5-6.2,2.5c-2.4,0-4.5-0.8-6.2-2.5s-2.5-3.8-2.5-6.2c0-2.4,0.8-4.5,2.5-6.2
		s3.8-2.6,6.2-2.6c2.4,0,4.5,0.9,6.2,2.6s2.5,3.8,2.5,6.2C251.4,41.1,250.6,43.2,248.9,44.9z M246.9,34.3c-1.1-1.2-2.5-1.8-4.2-1.8
		s-3.1,0.6-4.2,1.8c-1.1,1.2-1.7,2.6-1.7,4.4c0,1.7,0.6,3.2,1.7,4.4s2.5,1.8,4.2,1.8s3.1-0.6,4.2-1.8s1.7-2.6,1.7-4.4
		C248.6,37,248,35.5,246.9,34.3z"/>
	<path class="st1" d="M258.1,30.4v2h0.1c1.2-1.6,2.8-2.5,4.7-2.5c2.1,0,3.6,0.6,4.4,1.9c0.8,1.3,1.2,3.1,1.2,5.3V47h-2.8v-9.4
		c0-0.8,0-1.5-0.1-2c-0.1-0.5-0.2-1-0.4-1.6c-0.2-0.5-0.6-0.9-1.1-1.2c-0.5-0.3-1.1-0.4-1.9-0.4c-0.8,0-1.4,0.1-1.9,0.4
		c-0.5,0.3-0.9,0.6-1.2,1c-0.3,0.4-0.5,0.9-0.7,1.6c-0.2,0.6-0.2,1.2-0.3,1.7c0,0.5-0.1,1.1-0.1,1.9V47h-2.8V30.4H258.1z"/>
	<path class="st1" d="M283.1,33l-2.4,1.2c-0.2-0.5-0.5-0.9-0.9-1.2s-0.8-0.5-1.3-0.5c-0.5,0-1,0.2-1.4,0.5s-0.6,0.8-0.6,1.3
		c0,0.2,0,0.4,0.1,0.6s0.2,0.3,0.4,0.5c0.2,0.2,0.3,0.3,0.5,0.4s0.3,0.2,0.7,0.4c0.3,0.1,0.5,0.2,0.7,0.3c0.1,0.1,0.4,0.2,0.8,0.4
		c0.4,0.2,0.7,0.3,0.8,0.3c1.2,0.5,2.1,1.1,2.8,1.8c0.7,0.7,1,1.7,1,3c0,1.6-0.5,2.8-1.6,3.9c-1.1,1-2.4,1.5-4,1.5
		c-1.4,0-2.6-0.4-3.6-1.1c-1-0.7-1.8-1.8-2.2-3.1l2.5-1.1c0.4,0.9,0.8,1.5,1.3,2c0.5,0.4,1.2,0.7,2,0.7c0.8,0,1.4-0.2,1.9-0.7
		c0.5-0.5,0.8-1.1,0.8-1.8c0-0.7-0.3-1.2-0.8-1.7c-0.5-0.4-1.1-0.8-1.9-1.1c-0.7-0.3-1.5-0.6-2.2-1c-0.7-0.3-1.4-0.8-1.9-1.5
		c-0.5-0.6-0.8-1.5-0.8-2.4c0-1.4,0.5-2.5,1.4-3.4c1-0.9,2.1-1.3,3.5-1.3c0.9,0,1.8,0.3,2.6,0.9C282.1,31.4,282.7,32.1,283.1,33z"/>
	<path class="st1" d="M302.5,39.3h-13c0,1.6,0.5,2.9,1.6,3.9c1,1.1,2.3,1.6,3.9,1.6c2.1,0,3.8-1.1,5.1-3.4l2.4,1.4
		c-1.7,3.1-4.2,4.7-7.7,4.7c-2.4,0-4.4-0.8-5.9-2.5c-1.5-1.6-2.2-3.7-2.2-6.1c0-2.6,0.7-4.7,2.2-6.4c1.4-1.7,3.4-2.6,5.9-2.6
		c2.6,0,4.6,0.9,6,2.7C302,34.5,302.7,36.7,302.5,39.3z M289.6,36.9h9.9c-0.2-1.2-0.7-2.3-1.7-3.1c-0.9-0.8-2-1.3-3.2-1.3
		c-1.2,0-2.3,0.4-3.3,1.3C290.4,34.6,289.8,35.7,289.6,36.9z"/>
	<path class="st1" d="M306.9,22.7c0.4-0.4,0.9-0.6,1.4-0.6s1,0.2,1.4,0.6c0.4,0.4,0.6,0.9,0.6,1.4c0,0.6-0.2,1-0.6,1.4
		c-0.4,0.4-0.9,0.6-1.4,0.6s-1-0.2-1.4-0.6c-0.4-0.4-0.6-0.9-0.6-1.4C306.3,23.6,306.5,23.1,306.9,22.7z M309.8,30.4V47h-2.8V30.4
		H309.8z"/>
	<path class="st1" d="M318.4,17.8V47h-2.8V17.8H318.4z"/>
</g>
<g class="st0">
	<path d="M20.8,76l2.5-12.2l4.5,9.7l4.5-9.7L34.9,76h-1.4l-1.6-7.8h0l-4,8.3l-4-8.3h0L22.2,76H20.8z"/>
	<path d="M47.7,72.7h-5.3L40.8,76h-1.5l5.8-12.1L50.7,76h-1.5L47.7,72.7z M47.1,71.5L45,66.9l-2.1,4.6H47.1z"/>
	<path d="M57.4,64.5V76H56V64.5H57.4z"/>
	<path d="M70.7,66.1l-1.1,0.7c-0.5-0.8-1.2-1.3-2.1-1.3c-0.6,0-1,0.2-1.5,0.5s-0.6,0.8-0.6,1.3c0,0.2,0.1,0.4,0.2,0.6
		c0.1,0.2,0.3,0.4,0.5,0.5c0.2,0.1,0.4,0.3,0.6,0.3c0.2,0.1,0.4,0.2,0.7,0.3l0.8,0.3c0.5,0.2,0.9,0.4,1.2,0.5s0.6,0.4,0.9,0.6
		c0.3,0.2,0.5,0.5,0.7,0.9c0.1,0.3,0.2,0.7,0.2,1.2c0,1-0.4,1.8-1.1,2.5c-0.8,0.7-1.7,1-2.8,1c-1,0-1.8-0.3-2.5-0.8
		s-1.1-1.3-1.3-2.2l1.4-0.4c0.1,0.6,0.4,1.1,0.8,1.5c0.5,0.4,1,0.6,1.7,0.6c0.7,0,1.3-0.2,1.8-0.7c0.5-0.4,0.8-1,0.8-1.6
		c0-0.3,0-0.5-0.1-0.7c-0.1-0.2-0.2-0.4-0.3-0.5c-0.1-0.1-0.3-0.3-0.6-0.4c-0.3-0.2-0.5-0.3-0.6-0.3c-0.1-0.1-0.4-0.2-0.7-0.3
		l-0.8-0.3c-0.9-0.4-1.6-0.8-2-1.2c-0.5-0.4-0.7-1-0.7-1.8c0-0.9,0.3-1.6,1-2.1c0.7-0.5,1.5-0.8,2.5-0.8c0.7,0,1.3,0.2,1.9,0.5
		C69.9,65,70.4,65.5,70.7,66.1z"/>
	<path d="M78.4,66c1.3-1.2,2.8-1.8,4.6-1.8c1.8,0,3.3,0.6,4.6,1.8s1.9,2.6,1.9,4.2c0,1.7-0.6,3.1-1.9,4.2s-2.8,1.7-4.6,1.7
		c-1.8,0-3.3-0.6-4.6-1.7c-1.3-1.2-1.9-2.6-1.9-4.2C76.5,68.6,77.2,67.2,78.4,66z M86.6,66.9c-1-0.9-2.2-1.4-3.6-1.4
		s-2.6,0.5-3.6,1.4c-1,0.9-1.5,2.1-1.5,3.4c0,1.3,0.5,2.4,1.5,3.4S81.6,75,83,75c1.4,0,2.6-0.5,3.6-1.4s1.5-2.1,1.5-3.4
		C88.1,68.9,87.6,67.8,86.6,66.9z"/>
	<path d="M95.5,76V64l9.7,9.4v-8.9h1.4v12.1l-9.7-9.4V76H95.5z"/>
	<path d="M122.2,76V64.5h2.3c1,0,1.9,0.1,2.7,0.3c0.8,0.2,1.5,0.6,2.2,1.1c1.4,1.1,2.1,2.6,2.1,4.4c0,1.7-0.7,3.2-2,4.3
		c-0.7,0.6-1.4,1-2.2,1.2s-1.7,0.3-2.8,0.3H122.2z M123.6,74.8h1c0.8,0,1.6-0.1,2.2-0.3c0.6-0.2,1.2-0.5,1.7-0.9
		c1-0.9,1.6-2,1.6-3.4c0-1.4-0.5-2.6-1.6-3.5c-0.5-0.4-1.1-0.7-1.7-0.9c-0.6-0.2-1.3-0.2-2.2-0.2h-1V74.8z"/>
	<path d="M137.4,76V64.5h6.5v1.2h-5.1v3.4h4.9v1.2h-4.9v4.5h5.1V76H137.4z"/>
	<path d="M160.7,71V76h-1.4V64.5h2c0.7,0,1.3,0,1.8,0.1s0.9,0.2,1.3,0.5c0.5,0.3,0.8,0.7,1,1.1c0.2,0.5,0.4,1,0.4,1.5
		c0,1-0.4,1.9-1.2,2.5c-0.7,0.5-1.7,0.8-3,0.8H160.7z M160.7,65.7v4.1h0.9c1.9,0,2.8-0.7,2.8-2.1c0-0.4-0.1-0.7-0.2-0.9
		s-0.3-0.5-0.5-0.6c-0.2-0.1-0.4-0.2-0.8-0.3c-0.3-0.1-0.6-0.1-0.9-0.1c-0.3,0-0.6,0-1,0H160.7z"/>
	<path d="M171.6,76V64.5h6.5v1.2H173v3.4h4.9v1.2H173v4.5h5.1V76H171.6z"/>
	<path d="M185.8,70.9V76h-1.4V64.5h1.8c0.6,0,1.2,0,1.7,0.1c0.5,0.1,1,0.2,1.4,0.5s0.8,0.6,1,1c0.2,0.4,0.4,1,0.4,1.6
		c0,0.9-0.3,1.6-0.8,2.2s-1.3,0.9-2.3,1l4,5.2h-1.7l-3.8-5.1H185.8z M185.8,65.7v4.2h0.4c0.4,0,0.8,0,1.2-0.1c0.3-0.1,0.7-0.1,1-0.3
		c0.3-0.1,0.6-0.3,0.7-0.6c0.2-0.3,0.3-0.6,0.3-1.1c0-0.4-0.1-0.7-0.2-0.9c-0.1-0.3-0.3-0.5-0.4-0.6c-0.2-0.1-0.4-0.3-0.7-0.3
		c-0.3-0.1-0.6-0.1-0.9-0.2s-0.6,0-1,0H185.8z"/>
	<path d="M203,65.7h-4.3v3.4h4.1v1.2h-4.1V76h-1.4V64.5h5.7V65.7z"/>
	<path d="M210.5,66c1.3-1.2,2.8-1.8,4.6-1.8s3.3,0.6,4.6,1.8s1.9,2.6,1.9,4.2c0,1.7-0.6,3.1-1.9,4.2s-2.8,1.7-4.6,1.7
		s-3.3-0.6-4.6-1.7c-1.3-1.2-1.9-2.6-1.9-4.2C208.6,68.6,209.2,67.2,210.5,66z M218.7,66.9c-1-0.9-2.2-1.4-3.6-1.4s-2.6,0.5-3.6,1.4
		c-1,0.9-1.5,2.1-1.5,3.4c0,1.3,0.5,2.4,1.5,3.4s2.2,1.4,3.6,1.4s2.6-0.5,3.6-1.4c1-0.9,1.5-2.1,1.5-3.4
		C220.2,68.9,219.7,67.8,218.7,66.9z"/>
	<path d="M228.8,70.9V76h-1.4V64.5h1.8c0.6,0,1.2,0,1.7,0.1c0.5,0.1,1,0.2,1.4,0.5c0.5,0.2,0.8,0.6,1,1s0.4,1,0.4,1.6
		c0,0.9-0.3,1.6-0.8,2.2s-1.3,0.9-2.3,1l4,5.2h-1.7l-3.8-5.1H228.8z M228.8,65.7v4.2h0.4c0.4,0,0.8,0,1.2-0.1c0.3-0.1,0.7-0.1,1-0.3
		c0.3-0.1,0.6-0.3,0.7-0.6s0.3-0.6,0.3-1.1c0-0.4-0.1-0.7-0.2-0.9s-0.3-0.5-0.4-0.6c-0.2-0.1-0.4-0.3-0.7-0.3
		c-0.3-0.1-0.6-0.1-0.9-0.2s-0.6,0-1,0H228.8z"/>
	<path d="M239.5,76l2.5-12.2l4.5,9.7l4.5-9.7l2.5,12.2h-1.4l-1.6-7.8h0l-4,8.3l-4-8.3h0l-1.6,7.8H239.5z"/>
	<path d="M266.4,72.7H261l-1.5,3.3H258l5.8-12.1l5.6,12.1h-1.5L266.4,72.7z M265.8,71.5l-2.1-4.6l-2.1,4.6H265.8z"/>
	<path d="M274.8,76V64l9.7,9.4v-8.9h1.4v12.1l-9.7-9.4V76H274.8z"/>
	<path d="M302,65.4V67c-1.1-1-2.3-1.5-3.8-1.5c-1.4,0-2.6,0.5-3.5,1.4c-1,1-1.5,2.1-1.5,3.4c0,1.3,0.5,2.4,1.5,3.4s2.2,1.4,3.6,1.4
		c1.4,0,2.7-0.5,3.8-1.5v1.6c-1.1,0.8-2.4,1.1-3.7,1.1c-1.8,0-3.3-0.6-4.6-1.7c-1.3-1.2-1.9-2.6-1.9-4.2c0-1.7,0.6-3.1,1.9-4.2
		c1.3-1.2,2.8-1.8,4.6-1.8C299.6,64.3,300.9,64.6,302,65.4z"/>
	<path d="M308.3,76V64.5h6.5v1.2h-5.1v3.4h4.9v1.2h-4.9v4.5h5.1V76H308.3z"/>
</g>
<g>
	<path class="st1" d="M355.9,65.3c-2.2,0-4.4-0.3-6.5-0.9V76l0,0c2.1,0.4,4.3,0.6,6.5,0.6s4.4-0.2,6.5-0.6l0,0l0,0l0,0l0,0V64.4
		C360.3,65,358.2,65.3,355.9,65.3z"/>
	<path class="st1" d="M349.5,53.6L349.5,53.6c-4.3-2.3-7.2-6.8-7.2-12c0-7.6,6.1-13.7,13.7-13.7s13.7,6.1,13.7,13.7
		c0,5.2-2.9,9.8-7.2,12.1l0,0v10.7c9.9-2.8,17.2-12,17.2-22.8c0-13.1-10.6-23.7-23.7-23.7s-23.7,10.6-23.7,23.7
		c0,10.8,7.3,20,17.2,22.8V53.6L349.5,53.6z"/>
</g>
</svg>
