<?xml version="1.0" encoding="utf-8"?>
<!-- Generator: Adobe Illustrator 18.0.0, SVG Export Plug-In . SVG Version: 6.00 Build 0)  -->
<!DOCTYPE svg PUBLIC "-//W3C//DTD SVG 1.1//EN" "http://www.w3.org/Graphics/SVG/1.1/DTD/svg11.dtd">
<svg version="1.1" id="Calque_1" xmlns="http://www.w3.org/2000/svg" xmlns:xlink="http://www.w3.org/1999/xlink" x="0px" y="0px"
	 viewBox="0 0 358 94.6" enable-background="new 0 0 358 94.6" xml:space="preserve">
<g>
	<path fill="#000000" d="M2.8,17.8V47H0V17.8H2.8z"/>
	<path fill="#000000" d="M22.5,39.3h-13c0,1.6,0.5,2.9,1.6,3.9c1,1.1,2.3,1.6,3.9,1.6c2.1,0,3.8-1.1,5.1-3.4l2.4,1.4
		c-1.7,3.1-4.2,4.7-7.7,4.7c-2.4,0-4.4-0.8-5.9-2.5c-1.5-1.6-2.2-3.7-2.2-6.1c0-2.6,0.7-4.7,2.2-6.4c1.4-1.7,3.4-2.6,5.9-2.6
		c2.6,0,4.6,0.9,6,2.7C22,34.5,22.7,36.7,22.5,39.3z M9.6,36.9h9.9c-0.2-1.2-0.7-2.3-1.7-3.1c-0.9-0.8-2-1.3-3.2-1.3
		c-1.2,0-2.3,0.4-3.3,1.3C10.4,34.6,9.8,35.7,9.6,36.9z"/>
	<path fill="#000000" d="M38.4,22.7c0.4-0.4,0.9-0.6,1.4-0.6c0.5,0,1,0.2,1.4,0.6c0.4,0.4,0.6,0.9,0.6,1.4c0,0.6-0.2,1-0.6,1.4
		c-0.4,0.4-0.9,0.6-1.4,0.6c-0.5,0-1-0.2-1.4-0.6c-0.4-0.4-0.6-0.9-0.6-1.4C37.8,23.6,38,23.1,38.4,22.7z M41.3,30.4v25.9h-2.8V30.4
		H41.3z"/>
	<path fill="#000000" d="M60,44.9c-1.7,1.7-3.8,2.5-6.2,2.5c-2.4,0-4.5-0.8-6.2-2.5c-1.7-1.7-2.5-3.8-2.5-6.2c0-2.4,0.8-4.5,2.5-6.2
		c1.7-1.7,3.8-2.6,6.2-2.6c2.4,0,4.5,0.9,6.2,2.6c1.7,1.7,2.5,3.8,2.5,6.2C62.6,41.1,61.7,43.2,60,44.9z M58.1,34.3
		c-1.1-1.2-2.5-1.8-4.2-1.8c-1.7,0-3.1,0.6-4.2,1.8C48.5,35.5,48,37,48,38.7c0,1.7,0.6,3.2,1.7,4.4c1.1,1.2,2.5,1.8,4.2,1.8
		c1.7,0,3.1-0.6,4.2-1.8c1.1-1.2,1.7-2.6,1.7-4.4C59.8,37,59.2,35.5,58.1,34.3z"/>
	<path fill="#000000" d="M68.9,30.4v9.3c0,0.6,0,1.2,0.1,1.6c0,0.4,0.1,0.9,0.3,1.4c0.2,0.5,0.4,0.9,0.6,1.2
		c0.3,0.3,0.6,0.5,1.1,0.7c0.5,0.2,1,0.3,1.7,0.3c0.7,0,1.2-0.1,1.7-0.3s0.8-0.4,1.1-0.7c0.3-0.3,0.5-0.7,0.6-1.2
		c0.2-0.5,0.2-0.9,0.3-1.4c0-0.4,0.1-1,0.1-1.6v-9.3h2.8v9.6c0,5-2.2,7.5-6.6,7.5c-4.4,0-6.6-2.5-6.6-7.5v-9.6H68.9z"/>
	<path fill="#000000" d="M86.7,30.4v1.8h0.1c0.6-0.8,1.1-1.3,1.6-1.7c0.5-0.4,1.2-0.5,2-0.5c0.8,0,1.6,0.3,2.5,0.8l-1.3,2.6
		c-0.7-0.5-1.3-0.7-1.7-0.7c-2.2,0-3.3,2-3.3,6.1V47h-2.8V30.4H86.7z"/>
	<path fill="#000000" d="M110,30.4v2.4h0.1c1.4-1.9,3.3-2.8,5.7-2.8c2.4,0,4.3,0.9,5.7,2.6c1.5,1.7,2.2,3.8,2.2,6.2
		c0,2.5-0.7,4.5-2.2,6.2s-3.4,2.5-5.8,2.5c-2.4,0-4.3-0.9-5.7-2.8H110v11.7h-2.8V30.4H110z M115.3,32.5c-1.6,0-2.9,0.6-3.9,1.8
		c-1,1.2-1.5,2.6-1.5,4.2c0,1.7,0.5,3.2,1.5,4.5c1,1.2,2.3,1.9,4,1.9c1.7,0,3.1-0.6,4.1-1.8c1-1.2,1.5-2.7,1.5-4.5
		c0-1.7-0.5-3.2-1.5-4.3C118.4,33.1,117,32.5,115.3,32.5z"/>
	<path fill="#000000" d="M141.3,44.9c-1.7,1.7-3.8,2.5-6.2,2.5c-2.4,0-4.5-0.8-6.2-2.5c-1.7-1.7-2.5-3.8-2.5-6.2
		c0-2.4,0.8-4.5,2.5-6.2c1.7-1.7,3.8-2.6,6.2-2.6c2.4,0,4.5,0.9,6.2,2.6c1.7,1.7,2.5,3.8,2.5,6.2C143.8,41.1,143,43.2,141.3,44.9z
		 M139.3,34.3c-1.1-1.2-2.5-1.8-4.2-1.8c-1.7,0-3.1,0.6-4.2,1.8c-1.1,1.2-1.7,2.6-1.7,4.4c0,1.7,0.6,3.2,1.7,4.4
		c1.1,1.2,2.5,1.8,4.2,1.8c1.7,0,3.1-0.6,4.2-1.8c1.1-1.2,1.7-2.6,1.7-4.4C141,37,140.5,35.5,139.3,34.3z"/>
	<path fill="#000000" d="M150.3,30.4v1.8h0.1c0.6-0.8,1.1-1.3,1.6-1.7c0.5-0.4,1.2-0.5,2-0.5c0.8,0,1.6,0.3,2.5,0.8l-1.3,2.6
		c-0.7-0.5-1.3-0.7-1.7-0.7c-2.2,0-3.3,2-3.3,6.1V47h-2.8V30.4H150.3z"/>
	<path fill="#000000" d="M163.1,33v14h-2.8V33h-1.7v-2.6h1.7v-6h2.8v6h3V33H163.1z"/>
	<path fill="#000000" d="M183.1,39.3h-13c0,1.6,0.5,2.9,1.6,3.9c1,1.1,2.3,1.6,3.9,1.6c2.1,0,3.8-1.1,5.1-3.4l2.4,1.4
		c-1.7,3.1-4.2,4.7-7.7,4.7c-2.4,0-4.4-0.8-5.9-2.5c-1.5-1.6-2.2-3.7-2.2-6.1c0-2.6,0.7-4.7,2.2-6.4c1.4-1.7,3.4-2.6,5.9-2.6
		c2.6,0,4.6,0.9,6,2.7C182.6,34.5,183.2,36.7,183.1,39.3z M170.2,36.9h9.9c-0.2-1.2-0.7-2.3-1.7-3.1c-0.9-0.8-2-1.3-3.2-1.3
		c-1.2,0-2.3,0.4-3.3,1.3C170.9,34.6,170.4,35.7,170.2,36.9z"/>
	<path fill="#000000" d="M210.8,31.6v3.7h-0.1c-1.5-1.9-3.2-2.8-5.2-2.8c-1.7,0-3.1,0.6-4.2,1.8c-1.1,1.2-1.7,2.7-1.7,4.3
		c0,1.7,0.5,3.1,1.6,4.3c1.1,1.2,2.4,1.8,4.1,1.8c2.1,0,3.9-1,5.4-2.9h0.1v3.8c-1.7,1.1-3.4,1.7-5.3,1.7c-2.5,0-4.6-0.8-6.3-2.5
		c-1.7-1.7-2.5-3.8-2.5-6.3c0-2.4,0.9-4.5,2.6-6.2c1.7-1.7,3.8-2.5,6.3-2.5C207.6,29.9,209.3,30.5,210.8,31.6z"/>
	<path fill="#000000" d="M228.6,44.9c-1.7,1.7-3.8,2.5-6.2,2.5c-2.4,0-4.5-0.8-6.2-2.5c-1.7-1.7-2.5-3.8-2.5-6.2
		c0-2.4,0.8-4.5,2.5-6.2c1.7-1.7,3.8-2.6,6.2-2.6c2.4,0,4.5,0.9,6.2,2.6c1.7,1.7,2.5,3.8,2.5,6.2C231.1,41.1,230.3,43.2,228.6,44.9z
		 M226.6,34.3c-1.1-1.2-2.5-1.8-4.2-1.8c-1.7,0-3.1,0.6-4.2,1.8c-1.1,1.2-1.7,2.6-1.7,4.4c0,1.7,0.6,3.2,1.7,4.4
		c1.1,1.2,2.5,1.8,4.2,1.8c1.7,0,3.1-0.6,4.2-1.8c1.1-1.2,1.7-2.6,1.7-4.4C228.3,37,227.7,35.5,226.6,34.3z"/>
	<path fill="#000000" d="M237.6,30.4v2h0.1c1.2-1.6,2.8-2.5,4.7-2.5c2.1,0,3.6,0.6,4.4,1.9c0.8,1.3,1.2,3.1,1.2,5.3V47h-2.8v-9.4
		c0-0.8,0-1.5-0.1-2c-0.1-0.5-0.2-1-0.4-1.6c-0.2-0.5-0.6-0.9-1.1-1.2c-0.5-0.3-1.1-0.4-1.9-0.4c-0.8,0-1.4,0.1-1.9,0.4
		s-0.9,0.6-1.2,1c-0.3,0.4-0.5,0.9-0.7,1.6c-0.2,0.6-0.2,1.2-0.3,1.7c0,0.5-0.1,1.1-0.1,1.9V47h-2.8V30.4H237.6z"/>
	<path fill="#000000" d="M262,33l-2.4,1.2c-0.2-0.5-0.5-0.9-0.9-1.2c-0.4-0.3-0.8-0.5-1.3-0.5c-0.5,0-1,0.2-1.4,0.5
		s-0.6,0.8-0.6,1.3c0,0.2,0,0.4,0.1,0.6c0.1,0.2,0.2,0.3,0.4,0.5c0.2,0.2,0.3,0.3,0.5,0.4c0.1,0.1,0.3,0.2,0.7,0.4
		c0.3,0.1,0.5,0.2,0.7,0.3c0.1,0.1,0.4,0.2,0.8,0.4c0.4,0.2,0.7,0.3,0.8,0.3c1.2,0.5,2.1,1.1,2.8,1.8c0.7,0.7,1,1.7,1,3
		c0,1.6-0.5,2.8-1.6,3.9c-1.1,1-2.4,1.5-4,1.5c-1.4,0-2.6-0.4-3.6-1.1c-1-0.7-1.8-1.8-2.2-3.1l2.5-1.1c0.4,0.9,0.8,1.5,1.3,2
		c0.5,0.4,1.2,0.7,2,0.7c0.8,0,1.4-0.2,1.9-0.7c0.5-0.5,0.8-1.1,0.8-1.8c0-0.7-0.3-1.2-0.8-1.7c-0.5-0.4-1.1-0.8-1.9-1.1
		c-0.7-0.3-1.5-0.6-2.2-1c-0.7-0.3-1.4-0.8-1.9-1.5c-0.5-0.6-0.8-1.5-0.8-2.4c0-1.4,0.5-2.5,1.4-3.4s2.1-1.3,3.5-1.3
		c0.9,0,1.8,0.3,2.6,0.9C261,31.4,261.6,32.1,262,33z"/>
	<path fill="#000000" d="M281.4,39.3h-13c0,1.6,0.5,2.9,1.6,3.9c1,1.1,2.3,1.6,3.9,1.6c2.1,0,3.8-1.1,5.1-3.4l2.4,1.4
		c-1.7,3.1-4.2,4.7-7.7,4.7c-2.4,0-4.4-0.8-5.9-2.5c-1.5-1.6-2.2-3.7-2.2-6.1c0-2.6,0.7-4.7,2.2-6.4c1.4-1.7,3.4-2.6,5.9-2.6
		c2.6,0,4.6,0.9,6,2.7C280.9,34.5,281.5,36.7,281.4,39.3z M268.5,36.9h9.9c-0.2-1.2-0.7-2.3-1.7-3.1c-0.9-0.8-2-1.3-3.2-1.3
		s-2.3,0.4-3.3,1.3C269.2,34.6,268.7,35.7,268.5,36.9z"/>
	<path fill="#000000" d="M285.3,22.7c0.4-0.4,0.9-0.6,1.4-0.6s1,0.2,1.4,0.6c0.4,0.4,0.6,0.9,0.6,1.4c0,0.6-0.2,1-0.6,1.4
		s-0.9,0.6-1.4,0.6s-1-0.2-1.4-0.6c-0.4-0.4-0.6-0.9-0.6-1.4C284.7,23.6,284.9,23.1,285.3,22.7z M288.2,30.4V47h-2.8V30.4H288.2z"/>
	<path fill="#000000" d="M296.1,17.8V47h-2.8V17.8H296.1z"/>
</g>
<g>
	<path fill="#000000" d="M-0.1,76l2.5-12.2l4.5,9.7l4.5-9.7L14,76h-1.4L11,68.2h0l-4,8.3l-4-8.3h0L1.3,76H-0.1z"/>
	<path fill="#000000" d="M27.3,72.7H22L20.5,76h-1.5l5.8-12.1L30.3,76h-1.5L27.3,72.7z M26.7,71.5l-2.1-4.6l-2.1,4.6H26.7z"/>
	<path fill="#000000" d="M37.1,64.5V76h-1.4V64.5H37.1z"/>
	<path fill="#000000" d="M50.4,66.1l-1.1,0.7c-0.5-0.8-1.2-1.3-2.1-1.3c-0.6,0-1,0.2-1.5,0.5c-0.4,0.3-0.6,0.8-0.6,1.3
		c0,0.2,0.1,0.4,0.2,0.6c0.1,0.2,0.3,0.4,0.5,0.5s0.4,0.3,0.6,0.3c0.2,0.1,0.4,0.2,0.7,0.3l0.8,0.3c0.5,0.2,0.9,0.4,1.2,0.5
		c0.3,0.2,0.6,0.4,0.9,0.6c0.3,0.2,0.5,0.5,0.7,0.9c0.1,0.3,0.2,0.7,0.2,1.2c0,1-0.4,1.8-1.1,2.5c-0.8,0.7-1.7,1-2.8,1
		c-1,0-1.8-0.3-2.5-0.8c-0.7-0.5-1.1-1.3-1.3-2.2l1.4-0.4c0.1,0.6,0.4,1.1,0.8,1.5s1,0.6,1.7,0.6c0.7,0,1.3-0.2,1.8-0.7
		c0.5-0.4,0.8-1,0.8-1.6c0-0.3,0-0.5-0.1-0.7c-0.1-0.2-0.2-0.4-0.3-0.5s-0.3-0.3-0.6-0.4c-0.3-0.2-0.5-0.3-0.6-0.3
		c-0.1-0.1-0.4-0.2-0.7-0.3l-0.8-0.3c-0.9-0.4-1.6-0.8-2-1.2c-0.5-0.4-0.7-1-0.7-1.8c0-0.9,0.3-1.6,1-2.1c0.7-0.5,1.5-0.8,2.5-0.8
		c0.7,0,1.3,0.2,1.9,0.5C49.6,65,50.1,65.5,50.4,66.1z"/>
	<path fill="#000000" d="M58.1,66c1.3-1.2,2.8-1.8,4.6-1.8c1.8,0,3.3,0.6,4.6,1.8c1.3,1.2,1.9,2.6,1.9,4.2c0,1.7-0.6,3.1-1.9,4.2
		s-2.8,1.7-4.6,1.7c-1.8,0-3.3-0.6-4.6-1.7c-1.3-1.2-1.9-2.6-1.9-4.2C56.2,68.6,56.8,67.2,58.1,66z M66.3,66.9
		c-1-0.9-2.2-1.4-3.6-1.4S60,65.9,59,66.9s-1.5,2.1-1.5,3.4c0,1.3,0.5,2.4,1.5,3.4c1,0.9,2.2,1.4,3.6,1.4c1.4,0,2.6-0.5,3.6-1.4
		s1.5-2.1,1.5-3.4C67.8,68.9,67.3,67.8,66.3,66.9z"/>
	<path fill="#000000" d="M75.2,76V64l9.7,9.4v-8.9h1.4v12.1l-9.7-9.4V76H75.2z"/>
	<path fill="#000000" d="M102.3,76V64.5h2.3c1,0,1.9,0.1,2.7,0.3c0.8,0.2,1.5,0.6,2.2,1.1c1.4,1.1,2.1,2.6,2.1,4.4
		c0,1.7-0.7,3.2-2,4.3c-0.7,0.6-1.4,1-2.2,1.2c-0.8,0.2-1.7,0.3-2.8,0.3H102.3z M103.7,74.8h1c0.8,0,1.6-0.1,2.2-0.3
		s1.2-0.5,1.7-0.9c1-0.9,1.6-2,1.6-3.4c0-1.4-0.5-2.6-1.6-3.5c-0.5-0.4-1.1-0.7-1.7-0.9c-0.6-0.2-1.3-0.2-2.2-0.2h-1V74.8z"/>
	<path fill="#000000" d="M117.6,76V64.5h6.5v1.2H119v3.4h4.9v1.2H119v4.5h5.1V76H117.6z"/>
	<path fill="#000000" d="M141.2,71V76h-1.4V64.5h2c0.7,0,1.3,0,1.8,0.1s0.9,0.2,1.3,0.5c0.5,0.3,0.8,0.7,1,1.1
		c0.2,0.5,0.4,1,0.4,1.5c0,1-0.4,1.9-1.2,2.5c-0.7,0.5-1.7,0.8-3,0.8H141.2z M141.2,65.7v4.1h0.9c1.9,0,2.8-0.7,2.8-2.1
		c0-0.4-0.1-0.7-0.2-0.9c-0.1-0.3-0.3-0.5-0.5-0.6c-0.2-0.1-0.4-0.2-0.8-0.3c-0.3-0.1-0.6-0.1-0.9-0.1s-0.6,0-1,0H141.2z"/>
	<path fill="#000000" d="M151.9,76V64.5h6.5v1.2h-5.1v3.4h4.9v1.2h-4.9v4.5h5.1V76H151.9z"/>
	<path fill="#000000" d="M166,70.9V76h-1.4V64.5h1.8c0.6,0,1.2,0,1.7,0.1c0.5,0.1,1,0.2,1.4,0.5c0.5,0.2,0.8,0.6,1,1
		c0.2,0.4,0.4,1,0.4,1.6c0,0.9-0.3,1.6-0.8,2.2c-0.6,0.6-1.3,0.9-2.3,1l4,5.2h-1.7l-3.8-5.1H166z M166,65.7v4.2h0.4
		c0.4,0,0.8,0,1.2-0.1c0.3-0.1,0.7-0.1,1-0.3c0.3-0.1,0.6-0.3,0.7-0.6c0.2-0.3,0.3-0.6,0.3-1.1c0-0.4-0.1-0.7-0.2-0.9
		c-0.1-0.3-0.3-0.5-0.4-0.6c-0.2-0.1-0.4-0.3-0.7-0.3c-0.3-0.1-0.6-0.1-0.9-0.2c-0.3,0-0.6,0-1,0H166z"/>
	<path fill="#000000" d="M183.1,65.7h-4.3v3.4h4.1v1.2h-4.1V76h-1.4V64.5h5.7V65.7z"/>
	<path fill="#000000" d="M190.5,66c1.3-1.2,2.8-1.8,4.6-1.8s3.3,0.6,4.6,1.8c1.3,1.2,1.9,2.6,1.9,4.2c0,1.7-0.6,3.1-1.9,4.2
		c-1.3,1.2-2.8,1.7-4.6,1.7s-3.3-0.6-4.6-1.7s-1.9-2.6-1.9-4.2C188.6,68.6,189.2,67.2,190.5,66z M198.7,66.9c-1-0.9-2.2-1.4-3.6-1.4
		c-1.4,0-2.6,0.5-3.6,1.4c-1,0.9-1.5,2.1-1.5,3.4c0,1.3,0.5,2.4,1.5,3.4s2.2,1.4,3.6,1.4s2.6-0.5,3.6-1.4s1.5-2.1,1.5-3.4
		C200.2,68.9,199.7,67.8,198.7,66.9z"/>
	<path fill="#000000" d="M208.9,70.9V76h-1.4V64.5h1.8c0.6,0,1.2,0,1.7,0.1c0.5,0.1,1,0.2,1.4,0.5c0.5,0.2,0.8,0.6,1,1
		c0.2,0.4,0.4,1,0.4,1.6c0,0.9-0.3,1.6-0.8,2.2c-0.6,0.6-1.3,0.9-2.3,1l4,5.2h-1.7l-3.8-5.1H208.9z M208.9,65.7v4.2h0.4
		c0.4,0,0.8,0,1.2-0.1c0.3-0.1,0.7-0.1,1-0.3s0.6-0.3,0.7-0.6c0.2-0.3,0.3-0.6,0.3-1.1c0-0.4-0.1-0.7-0.2-0.9
		c-0.1-0.3-0.3-0.5-0.4-0.6c-0.2-0.1-0.4-0.3-0.7-0.3c-0.3-0.1-0.6-0.1-0.9-0.2c-0.3,0-0.6,0-1,0H208.9z"/>
	<path fill="#000000" d="M219.9,76l2.5-12.2l4.5,9.7l4.5-9.7L234,76h-1.4l-1.6-7.8h0l-4,8.3l-4-8.3h0l-1.6,7.8H219.9z"/>
	<path fill="#000000" d="M247.3,72.7H242l-1.5,3.3H239l5.8-12.1l5.6,12.1h-1.5L247.3,72.7z M246.8,71.5l-2.1-4.6l-2.1,4.6H246.8z"/>
	<path fill="#000000" d="M255.8,76V64l9.7,9.4v-8.9h1.4v12.1l-9.7-9.4V76H255.8z"/>
	<path fill="#000000" d="M283.2,65.4V67c-1.1-1-2.3-1.5-3.8-1.5c-1.4,0-2.6,0.5-3.5,1.4c-1,0.9-1.5,2.1-1.5,3.4s0.5,2.4,1.5,3.4
		c1,0.9,2.2,1.4,3.6,1.4c1.4,0,2.7-0.5,3.8-1.5v1.6c-1.1,0.8-2.4,1.1-3.7,1.1c-1.8,0-3.3-0.6-4.6-1.7s-1.9-2.6-1.9-4.2
		c0-1.7,0.6-3.1,1.9-4.2s2.8-1.8,4.6-1.8C280.8,64.3,282.1,64.6,283.2,65.4z"/>
	<path fill="#000000" d="M289.5,76V64.5h6.5v1.2h-5.1v3.4h4.9v1.2h-4.9v4.5h5.1V76H289.5z"/>
</g>
<g>
	<path fill="#000000" d="M335,65.3c-2.2,0-4.4-0.3-6.5-0.9V76h0c2.1,0.4,4.3,0.6,6.5,0.6c2.2,0,4.4-0.2,6.5-0.6h0v0c0,0,0,0,0,0l0,0
		V64.4C339.4,65,337.3,65.3,335,65.3z"/>
	<path fill="#000000" d="M328.6,53.6L328.6,53.6c-4.3-2.3-7.2-6.8-7.2-12c0-7.6,6.1-13.7,13.7-13.7s13.7,6.1,13.7,13.7
		c0,5.2-2.9,9.8-7.2,12.1h0v10.7c9.9-2.8,17.2-12,17.2-22.8c0-13.1-10.6-23.7-23.7-23.7s-23.7,10.6-23.7,23.7
		c0,10.8,7.3,20,17.2,22.8L328.6,53.6L328.6,53.6z"/>
</g>
</svg>
