<?xml version="1.0" encoding="utf-8"?>
<!-- Generator: Adobe Illustrator 22.0.1, SVG Export Plug-In . SVG Version: 6.00 Build 0)  -->
<svg version="1.1" id="Calque_1" xmlns="http://www.w3.org/2000/svg" xmlns:xlink="http://www.w3.org/1999/xlink" x="0px" y="0px"
	 viewBox="0 0 265.1 270.3" style="enable-background:new 0 0 265.1 270.3;" xml:space="preserve">
<style type="text/css">
	.st0{display:none;}
	.st1{display:inline;fill:none;stroke:#C5C5C5;stroke-width:0.5;stroke-linejoin:round;stroke-miterlimit:10;}
	.st2{display:inline;fill:none;stroke:#000000;stroke-width:0.5;stroke-linejoin:round;stroke-miterlimit:10;}
	.st3{display:inline;}
	.st4{fill:none;stroke:#C5C5C5;stroke-width:0.5;stroke-linejoin:round;stroke-miterlimit:10;}
	.st5{display:none;fill:none;stroke:#C5C5C5;stroke-width:0.5;stroke-linejoin:round;stroke-miterlimit:10;}
	.st6{display:none;fill:none;stroke:#000000;stroke-width:0.5;stroke-linejoin:round;stroke-miterlimit:10;}
	.st7{display:inline;fill:none;stroke:#C5C5C5;stroke-width:0.6;stroke-linejoin:round;stroke-miterlimit:10;}
	.st8{display:inline;fill:none;stroke:#000000;stroke-width:0.6;stroke-linejoin:round;stroke-miterlimit:10;}
	.st9{fill:none;stroke:#C5C5C5;stroke-width:0.6;stroke-linejoin:round;stroke-miterlimit:10;}
	.st10{fill:none;stroke:#8A8A8A;stroke-width:0.5;stroke-linejoin:round;stroke-miterlimit:10;}
	.st11{fill:none;stroke:#A0A0A0;stroke-width:0.5;stroke-linejoin:round;stroke-miterlimit:10;}
	.st12{fill:#FFFFFF;stroke:#A0A0A0;stroke-width:0.5;stroke-linejoin:round;stroke-miterlimit:10;}
	.st13{fill:#FFFFFF;}
	.st14{fill:none;stroke:#000000;stroke-width:0.5;stroke-linejoin:round;stroke-miterlimit:10;}
</style>
<g class="st0">
	<polyline class="st1" points="-641.3,-97.8 -614.5,-113.3 -614.5,-210.8 -698.9,-259.5 -783.4,-210.8 -783.4,-186.3 	"/>
	<polygon class="st2" points="-810.1,-170.9 -810.1,-73.4 -725.7,-24.6 -641.3,-73.4 -641.3,-170.9 -725.7,-219.6 	"/>
	<polyline class="st2" points="-683.5,-73.4 -641.3,-97.8 -641.3,-146.5 -683.5,-170.9 -714.8,-152.7 	"/>
	<path class="st2" d="M-683.5-146.5"/>
	<line class="st2" x1="-683.5" y1="-73.4" x2="-713.8" y2="-55.9"/>
	<path class="st2" d="M-683.5-122.1"/>
	<polyline class="st2" points="-727.5,-121.1 -767.9,-97.8 -746.9,-85.6 	"/>
	<polyline class="st2" points="-736.3,-152.7 -767.8,-170.9 -810,-146.5 -810,-97.8 	"/>
	<line class="st2" x1="-810.1" y1="-97.3" x2="-767.9" y2="-73"/>
	<path class="st2" d="M-810-122.1"/>
	<path class="st2" d="M-767.8-97.8"/>
	<g class="st3">
		<line class="st4" x1="-767.9" y1="-195.2" x2="-736.3" y2="-177"/>
		<polyline class="st4" points="-767.9,-146.5 -767.9,-195.2 -725.7,-219.6 -683.5,-195.2 -683.5,-146.5 -704.5,-134.4 		"/>
		<line class="st4" x1="-714" y1="-91" x2="-704.6" y2="-85.6"/>
		<line class="st4" x1="-704.5" y1="-61.2" x2="-683.5" y2="-49"/>
		<polyline class="st4" points="-767.9,-195.2 -767.9,-146.5 -746.9,-134.4 		"/>
		<polyline class="st4" points="-767.9,-49.1 -725.7,-24.7 -683.5,-49.1 -683.5,-73.4 		"/>
		<polyline class="st4" points="-767.8,-73.4 -746.9,-85.6 -746.9,-60.8 		"/>
		<line class="st4" x1="-662.4" y1="-85.6" x2="-641.3" y2="-73.4"/>
		<polyline class="st4" points="-614.5,-186.3 -683.5,-146.5 -683.5,-129.8 		"/>
		<line class="st4" x1="-683.5" y1="-195.2" x2="-709.7" y2="-180.1"/>
		<line class="st4" x1="-641.3" y1="-122.1" x2="-683.5" y2="-146.5"/>
		<line class="st4" x1="-683.5" y1="-73.4" x2="-683.5" y2="-49"/>
		<line class="st4" x1="-641.3" y1="-122.1" x2="-662.4" y2="-110"/>
		<polyline class="st4" points="-810,-122.1 -767.8,-146.5 -767.9,-195.2 		"/>
		<polyline class="st4" points="-810.1,-170.9 -767.9,-146.5 -767.9,-129.9 		"/>
		<polyline class="st4" points="-736.7,-67 -767.8,-49 -767.8,-73.4 		"/>
		<polyline class="st4" points="-767.8,-73.4 -789,-61.2 -789,-85.1 		"/>
	</g>
	<path class="st2" d="M-713.7-80.3l30.2-17.5l-40.2-23.3c-0.5-0.3-0.7-1-0.4-1.6l0.6-1.1c0.3-0.5,1-0.7,1.6-0.4l17.1,9.9
		c0.5,0.3,1.2,0.1,1.6-0.4l0,0c0.3-0.5,0.1-1.2-0.4-1.6l-19.3-11.2c-0.5-0.3-0.7-1-0.4-1.6l0.6-1.1c0.3-0.5,1-0.7,1.6-0.4l19.3,11.2
		c0.5,0.3,1.2,0.1,1.6-0.4l0,0c0.3-0.5,0.1-1.2-0.4-1.6l-20.4-11.8c-0.5-0.3-0.7-1-0.4-1.6l0.6-1.1c0.3-0.5,1-0.7,1.6-0.4l20.4,11.8
		c0.5,0.3,1.2,0.1,1.6-0.4l0,0c0.3-0.5,0.1-1.2-0.4-1.6l-18.2-10.6c-0.5-0.3-0.7-1-0.4-1.6l0.6-1.1c0.3-0.5,1-0.7,1.6-0.4l19.2,11.1
		l2,1.2l5.6,3.2c0.5,0.3,1.2,0.1,1.6-0.4l0,0c0.3-0.5,0.2-1.2-0.3-1.5l-8.6-6.2c-0.5-0.3-0.6-1-0.3-1.5l0.5-0.9
		c0.3-0.5,1-0.7,1.6-0.4l10.8,6.2c0.2,0.1,0.3,0.2,0.4,0.4l6.9,11.3c0.1,0.2,0.2,0.3,0.4,0.4l34.4,19.8"/>
	<path class="st2" d="M-811.2-97.1l34.5-19.9c0.2-0.1,0.3-0.2,0.4-0.4l6.9-11.3c0.1-0.2,0.2-0.3,0.4-0.4l10.8-6.2
		c0.5-0.3,1.2-0.1,1.6,0.4l0.5,0.9c0.3,0.5,0.2,1.2-0.3,1.5l-8.6,6.2c-0.5,0.3-0.6,1-0.3,1.5l0,0c0.3,0.5,1,0.7,1.6,0.4l5.6-3.2
		l2-1.2l19.2-11.1c0.5-0.3,1.2-0.1,1.6,0.4l0.6,1.1c0.3,0.5,0.1,1.2-0.4,1.6l-18.2,10.6c-0.5,0.3-0.7,1-0.4,1.6l0,0
		c0.3,0.5,1,0.7,1.6,0.4l20.4-11.8c0.5-0.3,1.2-0.1,1.6,0.4l0.6,1.1c0.3,0.5,0.1,1.2-0.4,1.6l-20.6,11.6c-0.5,0.3-0.7,1-0.4,1.6l0,0
		c0.3,0.5,1,0.7,1.6,0.4l19.3-11.2c0.5-0.3,1.2-0.1,1.6,0.4l0.6,1.1c0.3,0.5,0.1,1.2-0.4,1.6l-19.3,11.2c-0.5,0.3-0.7,1-0.4,1.6l0,0
		c0.3,0.5,1,0.7,1.6,0.4l17.1-9.9c0.5-0.3,1.2-0.1,1.6,0.4l0.6,1.1c0.3,0.5,0.1,1.2-0.4,1.6"/>
	<path class="st2" d="M-734.8-29.8l-0.1-33.5c0-0.2,0-0.4-0.1-0.5l-6.4-11.7c-0.1-0.2-0.1-0.4-0.1-0.5l-0.1-12.4
		c0-0.6,0.5-1.1,1.1-1.2h1c0.6,0,1.1,0.4,1.1,1l1.1,10.5c0.1,0.6,0.6,1,1.1,1l0,0c0.6,0,1.1-0.5,1.1-1.2v-6.5v-2.3l-0.1-22.2
		c0-0.6,0.5-1.1,1.1-1.2h1.3c0.6,0,1.1,0.5,1.2,1.1l0.1,21.1c0,0.6,0.5,1.1,1.2,1.1l0,0c0.6,0,1.1-0.5,1.1-1.2l-0.1-23.6
		c0-0.6,0.5-1.1,1.1-1.2h1.3c0.6,0,1.1,0.5,1.2,1.1l0.1,23.6c0,0.6,0.5,1.1,1.2,1.1l0,0c0.6,0,1.1-0.5,1.1-1.2l-0.1-22.3
		c0-0.6,0.5-1.1,1.1-1.2h1.3c0.6,0,1.1,0.5,1.2,1.1l0.1,22.3c0,0.6,0.5,1.1,1.2,1.1l0,0c0.6,0,1.1-0.5,1.1-1.2l-0.1-19.8
		c0-0.6,0.5-1.1,1.1-1.2h1.3c0.6,0,1.1,0.5,1.2,1.1l0.1,21v2.3l0.2,52.9"/>
	<path class="st2" d="M-715.6-213.5l0.1,22.7c0,0.2,0,0.4,0.1,0.5l6.4,11.7c0.1,0.2,0.1,0.4,0.1,0.5l0.1,12.4c0,0.6-0.5,1.1-1.1,1.2
		h-1c-0.6,0-1.1-0.4-1.1-1l-1.1-10.5c-0.1-0.6-0.6-1-1.1-1l0,0c-0.6,0-1.1,0.5-1.1,1.2v6.5v2.3l0.1,22.2c0,0.6-0.5,1.1-1.1,1.2h-1.3
		c-0.6,0-1.1-0.5-1.2-1.1l-0.1-21.1c0-0.6-0.5-1.1-1.2-1.1l0,0c-0.6,0-1.1,0.5-1.1,1.2l0.1,23.6c0,0.6-0.5,1.1-1.1,1.2h-1.3
		c-0.6,0-1.1-0.5-1.2-1.1l-0.1-23.6c0-0.6-0.5-1.1-1.2-1.1l0,0c-0.6,0-1.1,0.5-1.1,1.2l0.1,22.3c0,0.6-0.5,1.1-1.1,1.2h-1.3
		c-0.6,0-1.1-0.5-1.2-1.1l-0.1-22.3c0-0.6-0.5-1.1-1.2-1.1l0,0c-0.6,0-1.1,0.5-1.1,1.2l0.1,19.8c0,0.6-0.5,1.1-1.1,1.2h-1.3
		c-0.6,0-1.1-0.5-1.2-1.1l-0.1-21v-2.3l-0.2-44.1"/>
	<path class="st1" d="M-699.1-111.9l6.8-11.9c0,0,0,8.3,9,14.4"/>
	<path class="st1" d="M-750.7-111.9l-6.8-11.9c0,0,0,8.3-9,14.4"/>
	<path class="st1" d="M-718.1-81.4l-13.7-0.5c0,0,7,4.5,7.5,15.3"/>
	<path class="st1" d="M-732.1-173.4l13.8,0.2c0,0-7.1-4.3-7.8-15.1"/>
	<line class="st1" x1="-683.5" y1="-195.2" x2="-683.5" y2="-250.6"/>
</g>
<polyline class="st5" points="-881.4,-97.8 -854.6,-113.3 -854.6,-210.8 -939,-259.5 -1023.4,-210.8 -1023.4,-186.3 "/>
<polygon class="st6" points="-1050.2,-170.9 -1050.2,-73.4 -965.8,-24.6 -881.3,-73.4 -881.3,-170.9 -965.8,-219.6 "/>
<g class="st0">
	<line class="st7" x1="-1061.2" y1="-29.6" x2="-1061.2" y2="-58.3"/>
	<line class="st7" x1="-959.8" y1="-29.6" x2="-918.6" y2="-5.8"/>
	<line class="st7" x1="-934.6" y1="-15" x2="-934.6" y2="-44.2"/>
	<line class="st7" x1="-934.6" y1="-44.2" x2="-934.6" y2="-15"/>
	<line class="st7" x1="-884" y1="-102.7" x2="-911.9" y2="-86.6"/>
	<line class="st7" x1="-934.6" y1="-131.9" x2="-956.6" y2="-119.2"/>
	<line class="st7" x1="-909.3" y1="-58.8" x2="-884" y2="-44.2"/>
	<polyline class="st8" points="-884,-70.8 -884,-131.9 -934.6,-161.1 -966.5,-142.7 	"/>
	<line class="st8" x1="-976.4" y1="-20.1" x2="-903.1" y2="-62.4"/>
	<line class="st8" x1="-1030.4" y1="-70.3" x2="-1010.7" y2="-58.9"/>
	<polyline class="st8" points="-1002.2,-141.7 -1035.8,-161.1 -1086.4,-131.9 -1086.4,-67.3 	"/>
	<line class="st8" x1="-1065" y1="-60.5" x2="-1035.9" y2="-43.7"/>
	<g class="st3">
		<line class="st9" x1="-1035.8" y1="-44.2" x2="-1010.7" y2="-58.9"/>
		<line class="st9" x1="-1035.9" y1="-190.4" x2="-998" y2="-168.5"/>
		<path class="st9" d="M-956.6-119.2"/>
		<polyline class="st9" points="-1035.9,-131.9 -1035.9,-190.4 -985.2,-219.6 -934.6,-190.4 -934.6,-131.9 		"/>
		<path class="st9" d="M-934.6-15"/>
		<path class="st9" d="M-959.8-29.6"/>
		<polyline class="st9" points="-1035.9,-190.4 -1035.9,-131.9 -1004,-113.5 		"/>
		<path class="st9" d="M-934.6-44.2"/>
		<polyline class="st9" points="-1035.9,-15 -985.2,14.2 -934.6,-15 		"/>
		<path class="st9" d="M-934.6-106.6"/>
		<line class="st9" x1="-883.7" y1="-161.3" x2="-934.6" y2="-131.9"/>
		<line class="st9" x1="-934.6" y1="-190.4" x2="-975" y2="-167"/>
		<line class="st9" x1="-868.2" y1="-93.6" x2="-934.6" y2="-131.9"/>
		<path class="st9" d="M-934.6-15"/>
		<path class="st9" d="M-934.6-44.2"/>
		<path class="st9" d="M-911.9-86.6"/>
		<path class="st9" d="M-884-102.7"/>
		<polyline class="st9" points="-1102.3,-93.5 -1035.8,-131.9 -1035.9,-190.4 		"/>
		<polyline class="st9" points="-995.3,-38.4 -1035.8,-15 -1035.8,-44.2 		"/>
		<path class="st9" d="M-1061.2-58.3"/>
		<line class="st9" x1="-1035.8" y1="-44.2" x2="-1061.2" y2="-29.6"/>
	</g>
	<line class="st7" x1="-934.6" y1="-190.4" x2="-934.6" y2="-208.1"/>
</g>
<path class="st10" d="M190.5,153.2c12.9-2.6,25.2-9.1,34.9-19.4c24.5-26.3,23.1-67.5-3.2-92s-67.5-23.1-92,3.2
	c-14.7,15.8-20.1,36.9-16.3,56.5"/>
<path class="st10" d="M145.7,171.3c12.7,18.1,34.2,29.2,57.8,27.6c35.9-2.5,62.9-33.6,60.5-69.4c-2.5-35.9-33.6-62.9-69.4-60.5
	c-20.1,1.4-37.5,11.8-48.4,27"/>
<path class="st11" d="M144.7,155.2"/>
<path class="st11" d="M144.7,155.2"/>
<path class="st11" d="M144.7,155.2"/>
<path class="st10" d="M93.2,128.5c-20.5,0-40.6,9.6-53.3,27.6c-20.7,29.4-13.6,70,15.8,90.7c29.4,20.7,70,13.6,90.7-15.8
	c16.7-23.8,15.3-54.8-1.4-76.8"/>
<path class="st11" d="M99.7,155.1"/>
<path class="st11" d="M99.7,155.1"/>
<path class="st10" d="M109.3,103.7c-14.9-13.2-35.6-19.4-56.6-15C17.5,96.1-5,130.6,2.4,165.8s41.9,57.7,77.1,50.3
	c18.5-3.9,33.6-15.3,42.5-30.4"/>
<path class="st11" d="M99.7,155.1"/>
<circle class="st12" cx="132.5" cy="138.2" r="85.5"/>
<path class="st10" d="M162,129c20.8-10.9,35-32.6,35-57.7c0-36-29.1-65.1-65.1-65.1S66.8,35.3,66.8,71.3c0,3.8,0.3,7.5,1,11.2"/>
<path class="st10" d="M99.7,155.1c-0.1,0-0.1,0-0.2,0c-16.7,13.9-26.1,35.9-22.9,59c4.9,35.6,37.8,60.5,73.4,55.5
	c34.7-4.8,59.2-36.1,55.9-70.6"/>
<path class="st10" d="M116.8,54.4c-2.7-2.3-5.6-4.4-8.8-6.3c-30.8-18.6-70.8-8.7-89.4,22c-18.6,30.7-8.7,70.8,22,89.4
	c25.1,15.2,56.4,11.4,77.2-7.3"/>
<path class="st10" d="M135,223.7c2.4,2.8,5.1,5.4,8.1,7.8c27.9,22.7,68.9,18.4,91.6-9.5c22.7-27.9,18.4-68.9-9.5-91.6
	c-22.8-18.5-54.2-19-77.4-3.5"/>
<circle class="st13" cx="132.5" cy="138.2" r="73.8"/>
<g>
	<path class="st14" d="M132.6,138.2"/>
	<path class="st14" d="M206.2,133.7c-2.3-38.6-34.4-69.2-73.6-69.2v35.7c-1.8-2.4-4.7-4-7.9-4c-5.5,0-10,4.5-10,10s4.5,10,10,10
		c3.2,0,6.1-1.6,7.9-4v26"/>
	<path class="st14" d="M136.6,211.9c38.9-2.1,69.7-34.3,69.7-73.7h-35.7c2.4-1.8,4-4.7,4-7.9c0-5.5-4.5-10-10-10s-10,4.5-10,10
		c0,3.2,1.6,6.1,4,7.9h-26"/>
	<path class="st14" d="M58.9,142.8c2.3,38.6,34.4,69.2,73.6,69.2v-35.7c1.8,2.4,4.7,4,7.9,4c5.5,0,10-4.5,10-10s-4.5-10-10-10
		c-3.2,0-6.1,1.6-7.9,4v-26"/>
	<path class="st14" d="M127.6,64.6c-38.4,2.5-68.8,34.5-68.8,73.6h35.7c-2.4,1.8-4,4.7-4,7.9c0,5.5,4.5,10,10,10s10-4.5,10-10
		c0-3.2-1.6-6.1-4-7.9h26"/>
</g>
</svg>
