<?xml version="1.0" encoding="utf-8"?>
<!-- Generator: Adobe Illustrator 18.0.0, SVG Export Plug-In . SVG Version: 6.00 Build 0)  -->
<!DOCTYPE svg PUBLIC "-//W3C//DTD SVG 1.1//EN" "http://www.w3.org/Graphics/SVG/1.1/DTD/svg11.dtd">
<svg version="1.1" id="Calque_1" xmlns="http://www.w3.org/2000/svg" xmlns:xlink="http://www.w3.org/1999/xlink" x="0px" y="0px"
	 viewBox="0 0 114.6 58.7" enable-background="new 0 0 114.6 58.7" xml:space="preserve">
<g>
	<path fill="#000000" d="M71.9,51c-0.2,0-0.4,0.1-0.5,0.3c-0.4,0.3-0.8,0.6-1.3,0.9c-0.5,0.3-1,0.7-1.6,0.9
		c-0.4,0.2-0.9,0.3-1.4,0.3c-0.1,0-0.8,0-1.3-0.1c-1.5-0.4-2.7-1.2-3.6-2.7c-0.8-1.5-1.5-3.4-1.9-5.5c-0.4-2.2-0.6-4.6-0.7-7.2
		c0-2.5,0-5.1,0.2-7.6c0.2-2.4,0.4-4.7,0.6-6.7c0.3-2.1,0.5-3.6,0.6-4.6c0.1-0.8,0.3-1.6,0.4-2.3c0-0.2,0.2-1.3,0.5-2.6
		c3.7,0.5,5.5,1.3,6.9,2c1.6,0.8,2.5,2.1,3,3.2c-0.3-0.3-0.7-0.5-1.2-0.5c-0.7,0-1.2,0.3-1.7,0.9c-0.5,0.6-0.7,1.2-0.7,1.8
		c0,0.5,0.2,1,0.5,1.3c0.3,0.4,0.7,0.6,1.3,0.6c0.7,0,1.2-0.3,1.7-0.8c0.3-0.3,0.4-0.6,0.6-0.9c0,0,0,0,0,0s2.5-4.1-4.2-7.6
		c-1.1-0.6-3.1-1.3-5.8-1.8c0.5-2.8,1.1-5.9,1.2-6.6c-0.2-0.1-1-0.3-1.5-0.4c-0.5-0.1-1-0.2-1.4-0.4l-1.7-0.5
		c-0.2,1.1-0.8,4.4-1.3,7c-10.1-1.3-26.1-0.7-44.6,7.5c0-0.3,0.1-0.6,0.1-0.8c0.1-0.7,0.2-1.3,0.4-2c0.1-0.7,1.7-9,1.8-9.7
		c0-0.3-1.7-0.5-2.7-0.8L10.7,5c-0.3,1.6-1.5,8.3-1.6,8.8c-0.1,0.5-0.2,0.9-0.2,1.4c-0.2,1.4-0.5,3.1-0.7,5.2c0,0.3,0,0.5-0.1,0.8
		c-2.6,1.3-5.2,2.8-7.9,4.4c-0.3,0.2-0.4,1,0.6,0.5c2.1-1,4.5-2.1,7.1-3.1c-0.1,1.3-0.2,2.7-0.2,4.2c-0.1,2.4,0,4.9,0.2,7.4
		c0.2,2.5,0.7,4.8,1.3,6.8c0.7,2.1,1.6,3.8,2.8,5.2c1.2,1.4,2.7,2.3,4.7,2.6c1,0.2,2,0.1,2.8-0.1c0.8-0.2,1.6-0.7,2.4-1.3
		c0.1-0.1,0.3-0.2,0.4-0.3c0.1-0.1,0.1-0.1,0.2-0.2c0.3-0.3,0.6-0.6,0.5-1c-0.1-0.4-0.4-0.6-0.7-0.7c-0.3-0.1-0.6,0-1,0.3
		c-0.3,0.3-0.7,0.5-1.1,0.8c-0.4,0.3-0.9,0.5-1.4,0.8c-0.5,0.2-1.1,0.3-1.8,0.2c-1.3-0.2-2.3-1-3-2.3c-0.7-1.3-1.3-2.9-1.6-4.8
		c-0.4-1.9-0.5-3.9-0.6-6.2c0-2.2,0-4.4,0.2-6.5c0.1-2.1,0.3-4.1,0.5-5.8c0-0.3,0.1-0.6,0.1-0.9c7.7-2.9,16.5-5.5,25-6.4
		c8.8-0.9,15-1.2,19.4-1c-0.1,0.4-0.1,0.6-0.1,0.7l-0.3,1.6c-0.3,1.6-0.5,3.6-0.8,6c-0.3,2.5-0.5,5.1-0.5,7.8c0,1.3,0,2.6,0,3.8
		c-0.1,0.5-0.3,0.7-0.5,1c-0.5,0.9-1.2,1.8-1.9,2.7c-0.7,0.9-1.5,1.6-2.4,2.3c-0.9,0.7-1.8,1.2-2.8,1.6c-1,0.4-2.1,0.6-3.2,0.6
		c-0.7,0-1.4-0.2-1.9-0.5c-0.5-0.3-0.9-0.7-1.3-1.2c-0.3-0.5-0.6-1.1-0.7-1.7c-0.1-0.6-0.2-1.3-0.2-1.9c0-0.7,0.1-1.7,0.4-3
		c0.3-1.3,0.7-2.5,1.2-3.7c0.5-1.2,1.1-2.3,1.9-3.2c0.7-0.9,1.6-1.3,2.5-1.3c0.6,0,0.9,0.2,1,0.6c0.1,0.4,0.2,0.9,0.2,1.3
		c0,0.7-0.2,1.4-0.5,2c-0.3,0.6-0.5,1.1-0.5,1.4c0,0.3,0.2,0.5,0.6,0.5c0.5,0,0.9-0.2,1.3-0.5c0.3-0.3,0.6-0.7,0.8-1.1
		c0.2-0.4,0.3-0.9,0.4-1.4c0.1-0.5,0.1-0.9,0.1-1.3c0-1.4-0.4-2.3-1.1-2.9c-0.7-0.6-1.7-0.9-3-0.9c-1.5,0-2.9,0.4-4.1,1.3
		c-1.2,0.8-2.2,1.9-3,3.2c-0.8,1.3-1.4,2.7-1.8,4.2c-0.4,1.5-0.6,2.9-0.6,4.2c0,0.6,0.1,1.2,0.1,1.8c-0.5,0.7-1.1,1.3-1.7,1.9
		c-0.7,0.7-1.4,1.4-2.2,1.9c-0.7,0.5-1.4,0.8-2,0.8c-0.4,0-0.7-0.2-0.9-0.6c-0.2-0.4-0.4-0.9-0.5-1.5c-0.1-0.6-0.2-1.1-0.2-1.7
		c0-0.5,0-0.9,0-1.2c0-0.9,0.1-1.8,0.2-2.8c0.1-1,0.3-1.9,0.6-2.8c0.1-0.4,0.3-0.9,0.6-1.5c0.2-0.6,0.4-1.1,0.4-1.5
		c0-0.3-0.1-0.6-0.4-0.7c-0.3-0.1-0.5-0.2-0.8-0.2c-0.5,0-0.8,0.2-1.1,0.5c-0.3,0.3-0.5,0.7-0.6,1c-0.2,0.3-0.4,0.9-0.7,1.6
		c-0.3,0.7-0.7,1.4-1.1,2.3c-0.4,0.8-0.9,1.7-1.4,2.5c-0.5,0.9-1,1.6-1.5,2.3c-0.5,0.7-1,1.3-1.5,1.7c-0.5,0.5-0.9,0.7-1.3,0.7
		c-0.3,0-0.5-0.2-0.6-0.5c-0.1-0.3-0.1-0.6-0.1-0.8c0-1.9,0.4-3.7,1.2-5.4c0.8-1.7,1.8-3.2,3.1-4.5c0.7-0.8,1.5-1.5,2.4-2.1
		c0.8-0.6,1.7-1.2,2.6-1.7c0.1-0.1,0.3-0.1,0.4-0.2c0.1-0.1,0.2-0.2,0.2-0.4c0-0.4-0.2-0.7-0.6-1.1c-0.4-0.3-0.7-0.5-1.1-0.5
		c-1.5,0-2.9,0.5-4.3,1.5c-1.4,1-2.6,2.3-3.7,3.8c-1.1,1.5-1.9,3.1-2.6,4.8c-0.6,1.7-1,3.2-1,4.5c0,0.5,0,1,0.1,1.6
		c0.1,0.6,0.2,1.2,0.5,1.7c0.2,0.5,0.5,1,0.9,1.4c0.4,0.4,0.9,0.6,1.5,0.6c0.7,0,1.4-0.3,2.1-0.8c0.7-0.5,1.4-1.1,2-1.8
		c0.6-0.7,1.2-1.4,1.8-2.2c0.5-0.8,1-1.4,1.3-1.9c0,0.6,0,1.4,0.1,2.3c0.1,0.9,0.2,1.8,0.5,2.6c0.3,0.8,0.7,1.5,1.2,2.1
		c0.5,0.6,1.2,0.9,2,0.9c0.9,0,1.8-0.3,2.7-0.8c0.9-0.5,1.7-1.1,2.5-1.9c0.6-0.6,1.2-1.2,1.7-1.8c0.2,0.6,0.5,1.2,0.8,1.7
		c0.5,0.8,1.2,1.5,2.1,2c0.8,0.5,1.8,0.8,3,0.8c1.5,0,2.9-0.2,4.3-0.7c1.4-0.5,2.7-1.2,3.9-2c1.2-0.8,2.3-1.8,3.3-3
		c0.5-0.5,0.9-1.1,1.3-1.7c0,0.3,0,0.7,0.1,1c0.2,2.8,0.7,5.5,1.5,7.8c0.8,2.3,1.8,4.4,3.2,6c1.3,1.6,3.1,2.6,5.3,2.9
		c0.4,0.1,0.8,0.1,1.2,0.1c0.5,0,0.9-0.1,1.4-0.2c0.9-0.3,1.8-0.8,2.7-1.5c0.4-0.3,0.7-0.5,1-0.9c0.3-0.3,0.6-0.9,0.6-1.1
		C72.3,51.2,72.1,51,71.9,51z"/>
	<path fill="#000000" d="M113.2,33.3c-0.2-0.1-0.3-0.2-0.5-0.2c-0.4,0-0.7,0.2-0.9,0.5c-0.2,0.3-0.4,0.6-0.6,0.9
		c-0.5,0.8-1.1,1.7-1.8,2.5c-0.7,0.8-1.4,1.6-2.2,2.3c-0.8,0.7-1.7,1.2-2.6,1.6c-0.9,0.4-2,0.6-3.1,0.6c-1.2,0-2-0.3-2.5-1
		c-0.5-0.7-0.8-1.6-0.8-2.7c0-0.6,0.1-1.4,0.3-2.1c0.8-0.3,1.6-0.8,2.5-1.5c0.9-0.7,1.8-1.6,2.6-2.6c0.8-1,1.5-2,2-3
		c0.5-1,0.8-2,0.8-2.8c0-0.9-0.2-1.6-0.7-2.2c-0.5-0.6-1.2-0.9-2.1-0.9c-1.4,0-2.6,0.5-3.7,1.6c-1.1,1.1-2.1,2.3-2.9,3.8
		c-0.8,1.5-1.4,3.1-1.9,4.7c-0.2,0.8-0.4,1.6-0.5,2.2c-0.2,0.3-0.4,0.6-0.6,0.9c-0.3,0.5-0.8,1.1-1.3,1.8c-0.6,0.7-1.2,1.4-1.8,2.1
		c-0.7,0.7-1.3,1.2-2.1,1.7c-0.7,0.5-1.4,0.7-2,0.7c-0.7,0-1.3-0.3-1.7-1c-0.4-0.6-0.7-1.4-1-2.3c-0.2-0.9-0.4-1.8-0.5-2.7
		c-0.1-0.9-0.1-1.6-0.1-2.1c0-0.3,0-0.7,0-1.1c0-0.5,0.1-0.8,0.2-1.1c0.1-0.2,0.2-0.5,0.4-0.8c0.2-0.3,0.3-0.5,0.5-0.7
		c0.4-0.7,0.8-1.3,1.2-2c0.4-0.6,0.8-1.3,1.2-2c0.8-1.4,1.5-3,2.3-4.7c0.7-1.8,1.4-3.6,2-5.4c0.6-1.9,1.1-3.7,1.5-5.6
		c0.4-1.9,0.6-3.6,0.6-5.2c0-0.5-0.1-1-0.2-1.5c-0.1-0.5-0.3-1-0.5-1.5c-0.2-0.5-0.5-0.8-0.9-1.1C91.3,1.1,90.8,1,90.2,1
		c-0.7,0-1.5,0.3-2.2,0.8c-0.7,0.5-1.4,1.2-2,2c-0.6,0.8-1.2,1.6-1.7,2.5c-0.5,0.8-0.8,1.6-1.1,2.2c-1.4,3.3-2.4,6.7-3,10.1
		c-0.6,3.5-0.9,7-0.9,10.5c0,0.6,0,1.5,0.1,2.5c0,0.3,0,0.7,0.1,1c-0.3,0.4-0.9,1.3-1.1,1.5c-0.3,0.5-0.8,1.3-1.4,2.2
		c-0.6,0.9-1.3,1.8-2.1,2.7c-0.8,0.9-1.5,1.6-2.3,2.2c-0.8,0.6-1.5,0.9-2.2,0.9c-0.4,0-0.8-0.2-1-0.6c-0.2-0.4-0.4-0.8-0.5-1.3
		c-0.1-0.5-0.2-1-0.2-1.5c0-0.5,0-0.9,0-1.2c0-1.6,0.2-3.1,0.5-4.5c0.1-0.4,0.2-0.8,0.4-1.3c0.2-0.5,0.3-1,0.5-1.5
		c0.2-0.5,0.3-1,0.4-1.4c0.1-0.5,0.2-0.9,0.2-1.2c0-0.7-0.4-1.1-1.2-1.1c-1.1,0-1.9,0.3-2.4,0.9c-0.5,0.6-0.9,1.4-1.2,2.3
		c-0.3,0.9-0.5,1.9-0.7,3.1c-0.2,1.2-0.3,2.2-0.3,3.2c0,0.7,0.1,1.6,0.2,2.6c0.1,1,0.3,1.9,0.7,2.8c0.3,0.9,0.8,1.7,1.4,2.3
		c0.6,0.6,1.4,0.9,2.4,0.9c0.9,0,1.8-0.3,2.8-0.9c0.9-0.6,1.9-1.3,2.8-2.2c0.9-0.8,1.7-1.7,2.5-2.7c0.7-0.9,1.4-1.7,1.8-2.4
		c0.1-0.1,0.2-0.3,0.4-0.5c0.1-0.1,0.2-0.3,0.3-0.4c0.1,1,0.3,2,0.5,3c0.3,1.2,0.6,2.3,1.1,3.3c0.5,1,1,1.8,1.7,2.4
		c0.7,0.6,1.5,0.9,2.4,0.9c1,0,2.1-0.3,3.2-1c1-0.7,2-1.5,3-2.4c0.9-0.9,1.8-2,2.6-3.1c0-0.1,0.1-0.1,0.1-0.1c0,0.3,0.1,0.7,0.2,1
		c0.2,0.8,0.5,1.6,1,2.2c0.5,0.6,1,1.1,1.8,1.5c0.7,0.4,1.6,0.6,2.6,0.6c1.4,0,2.7-0.2,4-0.7c1.3-0.5,2.5-1.1,3.6-1.9
		c1.1-0.8,2.1-1.7,3.1-2.8c0.9-1,1.7-2.2,2.4-3.3c0.2-0.3,0.3-0.5,0.4-0.7c0.1-0.2,0.1-0.5,0.1-0.8
		C113.4,33.5,113.3,33.4,113.2,33.3z M99.1,31.6c0.3-1,0.7-1.9,1.1-2.9c0.4-1,0.9-1.8,1.4-2.6c0.5-0.7,1-1.1,1.5-1.1
		c0.3,0,0.6,0.1,0.7,0.4c0.1,0.3,0.2,0.5,0.2,0.8c0,0.7-0.2,1.4-0.6,2.1c-0.4,0.7-0.8,1.4-1.4,2.1c-0.5,0.7-1.1,1.3-1.8,1.9
		c-0.6,0.6-1.2,1-1.8,1.4C98.6,33.3,98.8,32.6,99.1,31.6z M83.3,26.5c0-0.2,0-0.5,0-0.8c0-2.4,0.3-5,0.9-7.6c0.6-2.7,1.2-5.2,2-7.5
		c0.1-0.4,0.3-1,0.6-1.8c0.3-0.8,0.6-1.6,0.9-2.4c0.4-0.8,0.8-1.5,1.2-2.1c0.5-0.6,1-0.9,1.5-0.9c0.2,0,0.4,0.1,0.5,0.2
		C90.9,3.8,91,4,91.1,4.2c0.1,0.2,0.1,0.4,0.1,0.7c0,0.2,0,0.4,0,0.5c0,1.6-0.3,3.4-0.8,5.4c-0.5,2-1.1,3.9-1.9,5.9
		c-0.8,2-1.6,3.9-2.5,5.7c-0.9,1.8-1.8,3.5-2.6,4.8C83.3,26.9,83.3,26.7,83.3,26.5z"/>
</g>
</svg>
